<?xml version="1.0" encoding="UTF-8" standalone="no"?>
<svg width="87px" height="108px" viewBox="0 0 87 108" version="1.1" xmlns="http://www.w3.org/2000/svg" xmlns:xlink="http://www.w3.org/1999/xlink" xmlns:sketch="http://www.bohemiancoding.com/sketch/ns">
    <!-- Generator: Sketch 3.3.3 (12072) - http://www.bohemiancoding.com/sketch -->
    <title>BackBone.JS</title>
    <desc>Created with Sketch.</desc>
    <defs></defs>
    <g id="Page-1" stroke="none" stroke-width="1" fill="none" fill-rule="evenodd" sketch:type="MSPage">
        <g id="website" sketch:type="MSArtboardGroup" transform="translate(-1146.000000, -812.000000)" stroke="#848484" stroke-width="0.5">
            <g id="logos" sketch:type="MSLayerGroup" transform="translate(810.000000, 813.000000)">
                <g id="BackBone.JS" transform="translate(336.169492, 0.000000)" sketch:type="MSShapeGroup">
                    <path d="M0.156253951,0 L0.156253951,57.3091161 L42.9152542,81.6253173 L42.9152542,65.0963934 L14.3100859,48.8291972 L14.3100859,23.2781358 L42.9152542,39.545332 L42.9152542,24.3162012 L0.156253951,0 L0.156253951,0 Z" id="Path" fill="#186473"></path>
                    <path d="M85.6742545,0 L85.6742545,57.3091161 L42.9152542,81.6253173 L42.9152542,65.0963934 L71.5204225,48.8291972 L71.5204225,23.2781358 L42.9152542,39.545332 L42.9152542,24.3162012 L85.6742545,0 L85.6742545,0 Z" id="path2996" fill="#259CB3"></path>
                    <path d="M0.156253951,48.6578052 L42.9152542,24.3416039 L42.9152542,40.8705279 L14.3100859,57.137724 L14.3100859,81.3889911 L42.9152542,65.1217961 L42.9152542,81.65072 L0.156253951,105.966921 L0.156253951,48.6578052 Z" id="path2998" fill="#259CB3"></path>
                    <path d="M85.6742545,105.966921 L85.6742545,48.6578052 L42.9152542,24.3416039 L42.9152542,40.8705279 L71.5204225,57.137724 L71.5204225,81.3889911 L42.9152542,65.1217961 L42.9152542,81.65072 L85.6742545,105.966921 L85.6742545,105.966921 Z" id="path3000" fill="#186473"></path>
                </g>
            </g>
        </g>
    </g>
</svg>