<?xml version="1.0" encoding="UTF-8" standalone="no"?>
<svg width="88px" height="78px" viewBox="0 0 88 78" version="1.1" xmlns="http://www.w3.org/2000/svg" xmlns:xlink="http://www.w3.org/1999/xlink" xmlns:sketch="http://www.bohemiancoding.com/sketch/ns">
    <!-- Generator: Sketch 3.3.3 (12072) - http://www.bohemiancoding.com/sketch -->
    <title>Bower</title>
    <desc>Created with Sketch.</desc>
    <defs></defs>
    <g id="Page-1" stroke="none" stroke-width="1" fill="none" fill-rule="evenodd" sketch:type="MSPage">
        <g id="website" sketch:type="MSArtboardGroup" transform="translate(-811.000000, -1130.000000)">
            <g id="logos" sketch:type="MSLayerGroup" transform="translate(810.000000, 813.000000)">
                <g id="Bower" transform="translate(1.589454, 317.669903)" sketch:type="MSShapeGroup">
                    <path d="M49.7135582,56.2070982 C50.7106783,58.0113145 51.7282111,59.8046526 52.6962652,61.6244091 C53.1983753,62.5683648 53.6876164,63.5320787 54.0512746,64.5346431 C54.8806548,66.8214933 54.0404026,69.0370807 52.005115,70.1879429 C51.8728756,70.2627578 51.7464051,70.4063936 51.6893825,70.5471433 C50.4104772,73.7144564 48.1497615,75.1650224 44.9307543,74.7831776 C44.2702233,74.7045887 43.8881493,74.8519985 43.4206522,75.3315244 C41.5799516,77.2192137 39.3443081,77.1879113 37.0489794,76.3878135 C36.3591605,76.1473845 35.8386345,76.0528113 35.117087,76.4157858 C33.2983524,77.3304371 30.3815432,76.0703495 29.5608162,74.0605587 C28.7507393,72.0774082 28.0369576,70.0549632 27.2750282,68.0520545 C27.2111274,67.8839984 27.1024071,67.7330366 27.1132791,67.7530168 C26.2419639,68.6487979 25.4567374,69.7035329 24.4431984,70.4470201 C22.2732308,72.0387797 19.8809413,72.2290361 17.4296323,71.0444295 C14.4265126,69.5931975 12.070833,67.3425337 10.1083214,64.7233454 C1.47082977,53.194743 -2.02729999,40.404277 1.33149034,26.1889975 C4.59354183,12.3819809 16.1757993,2.14676651 30.2422038,0.33034008 C37.1614716,-0.563220956 43.3305697,0.943289651 48.1455458,6.36215458 C50.0348376,8.48849684 51.4342227,10.9134328 52.2942221,13.6263063 C52.4766059,14.2012934 52.7299906,14.4514905 53.3215176,14.57004 C54.3295097,14.7718404 55.3124296,15.0990725 56.2853649,15.3679178 C61.102338,7.30699825 67.8296813,2.91667202 77.7660472,3.94210269 C77.4926934,4.35103174 77.4163674,4.51642378 77.2958876,4.63785928 C74.1032839,7.84935095 72.6180321,11.7981137 72.0828621,16.2321745 C71.6819285,19.5535575 70.5976103,22.6600419 68.1334324,25.0783177 C65.0959215,28.0593706 61.2612027,28.7857635 57.2010558,28.7489111 C56.9348021,28.746469 56.5791315,28.415241 56.4267013,28.1455076 C56.1029812,27.5722965 55.8857625,26.9387007 55.6294933,26.3404033 C53.0335198,26.6691894 52.450868,27.1900078 51.8342688,29.7825558 C54.1750825,30.0813715 56.509018,30.359541 58.8371847,30.6801129 C66.0111686,31.6678031 73.1780523,32.707886 80.1148485,34.8835128 C81.482505,35.3126441 82.8355175,35.8538868 84.1055476,36.515677 C86.716387,37.8761098 87.7791829,40.5685591 87.2153907,44.0291378 C86.7867223,46.6594263 84.8929929,48.5566617 82.1541299,49.0905783 C81.7569682,49.1680573 81.3544813,49.2175639 80.8847655,49.2906028 C81.0842338,51.8645026 79.4474393,53.0935098 77.4192518,53.9706426 C75.2845628,54.893952 73.0467005,54.9510067 70.8021819,54.5265375 C69.3415585,57.4962681 63.6783425,58.5765335 59.3419573,55.7728608 C57.6794249,57.8437024 55.408059,57.4973781 53.2210068,57.2056665 C52.0204245,57.0456026 50.8628866,56.5620806 49.6862672,56.2244144 C49.6882641,56.1698018 49.6900391,56.1149671 49.6918141,56.0601324 C49.6567574,56.0650165 49.6219225,56.0701225 49.5868658,56.0750066 C49.6290226,56.1189631 49.6714013,56.1631417 49.7135582,56.2070982 L49.7135582,56.2070982 Z M46.3813932,36.4632844 L46.3924871,36.4588443 C46.1036019,36.6175763 45.8071728,36.7638761 45.5273845,36.9368162 C41.5042912,39.4216929 37.0627359,40.2044746 32.396418,40.2479871 C32.4305872,40.1363197 32.4332498,40.075713 32.4532188,40.0692749 C33.2255764,39.8252939 34.0045903,39.6008491 34.7725103,39.3437699 C39.4594628,37.7748766 43.5923858,35.3981152 46.5557894,31.2930625 C46.9518418,30.7444937 46.9849016,30.3364527 46.6558564,29.7095169 C44.1344339,24.9036016 43.9442844,19.1837009 47.9227802,14.5966803 C48.1624085,14.3207309 48.2731257,13.6929071 48.1315675,13.362789 C46.6534157,9.91619647 44.276214,7.26903578 40.9316239,5.52720227 C37.0538607,3.50808733 32.9236003,3.55626192 28.8221841,4.35946784 C19.0411328,6.2751295 11.9603377,11.8775907 7.43624375,20.7028657 C4.407608,26.6112467 3.4269069,32.9474269 4.04661237,39.5189301 C4.3388258,42.6158683 5.10874272,45.6253375 6.46486153,48.4549845 C6.53031556,48.5286894 6.59599147,48.6023943 6.66166738,48.6760992 L6.65012972,48.6696611 C6.84449492,49.1791574 6.98250308,49.7192901 7.24187855,50.1932659 C12.538552,59.8765815 20.6628397,65.3944597 31.6400357,66.5646361 C37.7461203,67.2155482 42.6988828,65.1233943 45.9815689,59.7822304 C47.2127704,57.7790996 48.1732806,55.5992547 47.6991271,53.1057199 C48.530948,53.4806825 49.3345904,53.9466663 50.1999149,54.2135136 C52.7963322,55.0140555 55.937682,55.0777703 57.2316749,52.7698298 C58.2279075,53.0713095 59.1997335,53.4307319 60.201513,53.6565087 C63.4544675,54.3897838 65.7580057,53.2145013 66.4629123,50.68145 C67.691895,50.68145 68.863855,50.7171924 70.0329306,50.6743459 C72.8323663,50.5717806 74.1858226,48.984461 73.8092955,46.3059979 C75.0522564,46.231627 76.3103051,46.2507192 77.5346284,46.0566888 C78.8159743,45.8537783 79.921149,45.2481549 80.6580061,43.9048163 C79.8197507,43.7152259 79.1490133,43.5445058 78.4705101,43.4133022 C75.1813895,42.7772643 71.890272,42.1518826 68.5998201,41.5227268 C66.0854977,41.0154506 63.5722847,40.5021802 61.0561873,40.0031181 C59.7258064,39.7391568 58.3903223,39.4996159 57.0572788,39.2491968 C57.0692602,39.1943621 57.0812416,39.1397494 57.093223,39.0851367 L59.5108065,39.0851367 C66.7227316,39.7637991 73.9348784,40.4424615 81.1434753,41.1206799 C81.08024,39.1761579 77.9113773,37.2782564 75.4736029,37.7511223 C74.5845375,37.4620747 73.7132223,37.0884441 72.8033003,36.8997417 C69.8765065,36.2925642 66.9508222,35.6529743 63.9967375,35.2116329 C59.3978706,34.5245344 54.7774815,33.9784077 50.16153,33.4118567 C49.7836716,33.3654581 49.2633676,33.5073178 48.9909013,33.758847 C48.1528678,34.5323045 47.4029199,35.4014452 46.6188028,36.2335115 C46.5395923,36.3101025 46.4606037,36.3866934 46.3813932,36.4632844 L46.3813932,36.4632844 Z M67.1775816,22.5381624 C68.443396,20.9361906 68.9943193,19.0707015 69.4489475,17.166806 C70.3408974,13.4327199 70.4715835,9.44577266 73.2443939,6.28112358 C66.6685933,6.3233041 59.8846711,12.4763321 58.8134437,16.5014638 C59.6406052,16.9510194 60.4759762,17.404793 61.3854544,17.8987491 C63.0681778,14.6690532 64.9579133,11.6857803 68.1103571,9.83494347 C66.2263903,12.7636036 64.3424235,15.6920418 62.4924041,18.5680873 C64.192434,20.0084411 65.6517261,21.2452184 67.1775816,22.5381624 L67.1775816,22.5381624 Z M63.0570838,22.512188 C62.7227136,22.0533084 62.589143,21.777581 62.3756963,21.5955387 C61.9277244,21.213472 61.4482459,20.8651497 60.9632204,20.5294816 C57.7877014,18.3320984 54.3541382,16.7889574 50.4517465,16.51767 C50.0113186,16.4868116 49.3660971,16.6453216 49.1258031,16.9561254 C47.9720371,18.4493159 47.3796227,20.1969215 47.2946434,22.0799487 C47.2824401,22.3536781 47.6860363,22.833426 47.9731465,22.9026909 C49.821169,23.3484724 51.637463,23.1269136 53.3878591,22.4036287 C55.386315,21.5775565 57.4377997,21.3337975 59.5613947,21.776693 C60.623747,21.9982517 61.6854336,22.2233625 63.0570838,22.512188 L63.0570838,22.512188 Z M65.1738007,24.4360638 C64.8722684,24.2600156 64.7360353,24.1412442 64.5787237,24.0950676 C63.661036,23.8264443 62.7269293,23.6088816 61.8205573,23.3069579 C61.0257901,23.0423306 60.3510588,22.99349 59.9536752,24.045561 C59.770182,22.7455129 59.0854663,22.4371511 57.1919588,22.7657152 C57.4630938,23.7938099 57.7042752,24.8190185 58.0222265,25.8198069 C58.0865712,26.0222734 58.441798,26.2647004 58.6623448,26.2642564 C60.9456921,26.2604823 63.062187,25.6508628 65.1738007,24.4360638 L65.1738007,24.4360638 Z M47.1555258,23.3566865 C47.4102419,24.4389498 47.6991271,25.665515 47.9656027,26.796841 C50.2966538,25.8089288 52.4044955,24.935792 54.4877088,24.0078205 C54.7584,23.887273 54.9037302,23.4847821 55.1069705,23.2128287 C53.6190561,23.3029618 52.3703263,23.725433 51.1047337,23.7847078 C49.8657665,23.8426505 48.6094929,23.5307366 47.1555258,23.3566865 L47.1555258,23.3566865 Z" id="Fill-2" fill="#0B2D32"></path>
                    <path d="M6.46486153,48.4549845 C5.10874272,45.6253375 4.3388258,42.6158683 4.04661237,39.5189301 C3.4269069,32.9474269 4.407608,26.6112467 7.43624375,20.7028657 C11.9603377,11.8775907 19.0411328,6.2751295 28.8221841,4.35946784 C32.9236003,3.55626192 37.0538607,3.50808733 40.9316239,5.52720227 C44.276214,7.26903578 46.6534157,9.91619647 48.1315675,13.362789 C48.2731257,13.6929071 48.1624085,14.3207309 47.9227802,14.5966803 C43.9442844,19.1837009 44.1344339,24.9036016 46.6558564,29.7095169 C46.9849016,30.3364527 46.9518418,30.7444937 46.5557894,31.2930625 C43.5923858,35.3981152 39.4594628,37.7748766 34.7725103,39.3437699 C34.0045903,39.6008491 33.2255764,39.8252939 32.4532188,40.0692749 C32.4332498,40.075713 32.4305872,40.1363197 32.396418,40.2479871 C37.0627359,40.2044746 41.5042912,39.4216929 45.5273845,36.9368162 C45.8071728,36.7638761 46.1036019,36.6175763 46.3922652,36.4588443 C46.077864,37.1546009 45.8315793,37.891872 45.4379676,38.539454 C42.8209157,42.8458632 39.3897931,46.2640394 34.6072112,48.1015561 C30.5113419,49.6753335 26.3642187,49.3987181 22.2133237,48.2671701 C21.8270339,48.1617188 21.2945266,48.0822419 20.9914411,48.2625081 C18.1924492,49.9293047 15.142735,50.2438826 12.0195792,49.8555998 C10.2086103,49.630489 8.43846702,49.0759261 6.65012972,48.6696611 L6.66166738,48.6760992 C6.59599147,48.6023943 6.53031556,48.5286894 6.46486153,48.4549845 L6.46486153,48.4549845 Z M33.8605915,12.2432292 C29.579454,12.2379011 26.2062416,15.5397479 26.1922632,19.7493639 C26.178063,24.0222507 29.4895933,27.5210139 33.7860404,27.4854935 C38.1847733,27.448863 41.4091055,24.1847567 41.4674594,19.833059 C41.5233727,15.6503053 38.0700623,12.2483353 33.8605915,12.2432292 L33.8605915,12.2432292 Z" id="Fill-3" fill="#259CB3"></path>
                    <path d="M6.65012972,48.6696611 C8.43846702,49.0759261 10.2086103,49.630489 12.0195792,49.8555998 C15.142735,50.2438826 18.1924492,49.9293047 20.9914411,48.2625081 C21.2945266,48.0822419 21.8270339,48.1617188 22.2133237,48.2671701 C26.3642187,49.3987181 30.5113419,49.6753335 34.6072112,48.1015561 C39.3897931,46.2640394 42.8209157,42.8458632 45.4379676,38.539454 C45.8315793,37.891872 46.077864,37.1546009 46.3922652,36.4588443 C46.3924871,36.4588443 46.3813932,36.4632844 46.3813932,36.4632844 C46.4606037,36.3866934 46.5395923,36.3101025 46.6188028,36.2335115 C47.4029199,35.4014452 48.1528678,34.5323045 48.9909013,33.758847 C49.2633676,33.5073178 49.7836716,33.3654581 50.16153,33.4118567 C54.7774815,33.9784077 59.3978706,34.5245344 63.9967375,35.2116329 C66.9508222,35.6529743 69.8765065,36.2925642 72.8033003,36.8997417 C73.7132223,37.0884441 74.5845375,37.4620747 75.473381,37.7513443 C71.3903807,38.0885664 67.3073803,38.4249006 63.2246018,38.7638988 C61.9863002,38.866686 60.7486643,38.9779094 59.5108065,39.0851367 L57.093223,39.0851367 C57.0812416,39.1397494 57.0692602,39.1943621 57.0572788,39.2491968 C58.3903223,39.4996159 59.7258064,39.7391568 61.0561873,40.0031181 C63.5722847,40.5021802 66.0854977,41.0154506 68.5998201,41.5229488 C68.3684013,42.0431013 68.2570185,42.6804711 67.8838195,43.0616499 C66.4451621,44.531974 64.6661437,44.8778543 62.698307,44.291767 C62.7289262,46.4001271 61.8469608,47.609376 59.7710695,48.3541952 C57.9714164,48.9997792 56.1806385,49.0155414 54.4136015,48.095784 C53.8098712,49.878466 52.4446554,50.3872963 50.8910651,50.7163044 C49.2229857,51.0692888 47.7892096,50.5153919 46.3700774,49.7823389 C46.3501084,49.6922057 46.3299175,49.6022946 46.3097266,49.5123835 C46.2833231,49.5296997 46.2569196,49.547238 46.230738,49.5645542 C46.2824356,49.632709 46.3343551,49.7006419 46.3862745,49.7687967 C46.7579203,50.7453868 47.1295661,51.7219768 47.5012119,52.6983449 C47.5699941,52.8366526 47.6385544,52.9749603 47.7073366,53.113268 L47.6991271,53.1057199 C48.1732806,55.5992547 47.2127704,57.7790996 45.9815689,59.7822304 C42.6988828,65.1233943 37.7461203,67.2155482 31.6400357,66.5646361 C20.6628397,65.3944597 12.538552,59.8765815 7.24187855,50.1932659 C6.98250308,49.7192901 6.84449492,49.1791574 6.65012972,48.6696611" id="Fill-4" fill="#1C6472"></path>
                    <path d="M47.5012119,52.6983449 C47.1295661,51.7219768 46.7579203,50.7453868 46.3862745,49.7687967 L46.3700774,49.7823389 C47.7892096,50.5153919 49.2229857,51.0692888 50.8910651,50.7163044 C52.4446554,50.3872963 53.8098712,49.878466 54.4136015,48.095784 C56.1806385,49.0155414 57.9714164,48.9997792 59.7710695,48.3541952 C61.8469608,47.609376 62.7289262,46.4001271 62.698307,44.291767 C64.6661437,44.8778543 66.4451621,44.531974 67.8838195,43.0616499 C68.2570185,42.6804711 68.3684013,42.0431013 68.5998201,41.5229488 C71.890272,42.1518826 75.1813895,42.7772643 78.4705101,43.4133022 C79.1490133,43.5445058 79.8197507,43.7152259 80.6580061,43.9048163 C79.921149,45.2481549 78.8159743,45.8537783 77.5346284,46.0566888 C76.3103051,46.2507192 75.0522564,46.231627 73.8092955,46.3059979 C74.1858226,48.984461 72.8323663,50.5717806 70.0329306,50.6743459 C68.863855,50.7171924 67.691895,50.68145 66.4629123,50.68145 C65.7580057,53.2145013 63.4544675,54.3897838 60.201513,53.6565087 C59.1997335,53.4307319 58.2279075,53.0713095 57.2316749,52.7698298 C55.937682,55.0777703 52.7963322,55.0140555 50.1999149,54.2135136 C49.3345904,53.9466663 48.530948,53.4806825 47.6991271,53.1057199 L47.7073366,53.113268 C47.6385544,52.9749603 47.5699941,52.8366526 47.5012119,52.6983449" id="Fill-5" fill="#1C6472"></path>
                    <path d="M67.1775816,22.5381624 C65.6517261,21.2452184 64.192434,20.0084411 62.4924041,18.5680873 C64.3424235,15.6920418 66.2263903,12.7636036 68.1103571,9.83494347 C64.9579133,11.6857803 63.0681778,14.6690532 61.3854544,17.8987491 C60.4759762,17.404793 59.6406052,16.9510194 58.8134437,16.5014638 C59.8846711,12.4763321 66.6685933,6.3233041 73.2443939,6.28112358 C70.4715835,9.44577266 70.3408974,13.4327199 69.4489475,17.166806 C68.9943193,19.0707015 68.443396,20.9361906 67.1775816,22.5381624 L67.1775816,22.5381624 Z M68.4906561,9.70706989 C68.4697995,9.68464761 68.4491649,9.66222534 68.4283083,9.63980306 C68.4063424,9.66089332 68.3841546,9.68220558 68.3621887,9.70329585 C68.3936954,9.72616213 68.4249802,9.74880641 68.4564869,9.77167269 C68.4678026,9.75013842 68.4791184,9.72860416 68.4906561,9.70706989 L68.4906561,9.70706989 Z" id="Fill-6" fill="#259CB3"></path>
                    <path d="M63.0570838,22.512188 C61.6854336,22.2233625 60.623747,21.9982517 59.5613947,21.776693 C57.4377997,21.3337975 55.386315,21.5775565 53.3878591,22.4036287 C51.637463,23.1269136 49.821169,23.3484724 47.9731465,22.9026909 C47.6860363,22.833426 47.2824401,22.3536781 47.2946434,22.0799487 C47.3796227,20.1969215 47.9720371,18.4493159 49.1258031,16.9561254 C49.3660971,16.6453216 50.0113186,16.4868116 50.4517465,16.51767 C54.3541382,16.7889574 57.7877014,18.3320984 60.9632204,20.5294816 C61.4482459,20.8651497 61.9277244,21.213472 62.3756963,21.5955387 C62.589143,21.777581 62.7227136,22.0533084 63.0570838,22.512188" id="Fill-7" fill="#CAC9C9"></path>
                    <path d="M59.5108065,39.0851367 C60.7486643,38.9779094 61.9863002,38.866686 63.2246018,38.7638988 C67.3073803,38.4249006 71.3903807,38.0885664 75.473381,37.7513443 C77.9113773,37.2782564 81.08024,39.1761579 81.1434753,41.1206799 C73.9348784,40.4424615 66.7227316,39.7637991 59.5108065,39.0851367" id="Fill-8" fill="#1C6472"></path>
                    <path d="M65.1738007,24.4360638 C63.062187,25.6508628 60.9456921,26.2604823 58.6623448,26.2642564 C58.441798,26.2647004 58.0865712,26.0222734 58.0222265,25.8198069 C57.7042752,24.8190185 57.4630938,23.7938099 57.1919588,22.7657152 C59.0854663,22.4371511 59.770182,22.7455129 59.9536752,24.045561 C60.3510588,22.99349 61.0257901,23.0423306 61.8205573,23.3069579 C62.7269293,23.6088816 63.661036,23.8264443 64.5787237,24.0950676 C64.7360353,24.1412442 64.8722684,24.2600156 65.1738007,24.4360638" id="Fill-9" fill="#259CB3"></path>
                    <path d="M47.1555258,23.3566865 C48.6094929,23.5307366 49.8657665,23.8426505 51.1047337,23.7847078 C52.3703263,23.725433 53.6190561,23.3029618 55.1069705,23.2128287 C54.9037302,23.4847821 54.7584,23.887273 54.4877088,24.0078205 C52.4044955,24.935792 50.2966538,25.8089288 47.9656027,26.796841 C47.6991271,25.665515 47.4102419,24.4389498 47.1555258,23.3566865" id="Fill-10" fill="#C4C2C1"></path>
                    <path id="Fill-11" fill="#FDFDFD" d="M49.7135582,56.2070982 C49.6714013,56.1631417 49.6290226,56.1189631 49.5868658,56.0750066 C49.6219225,56.0701225 49.6567574,56.0650165 49.6918141,56.0601324 C49.6900391,56.1149671 49.6882641,56.1698018 49.6862672,56.2244144 C49.6860453,56.2246364 49.7135582,56.2070982 49.7135582,56.2070982"></path>
                    <path id="Fill-12" fill="#FCCA2E" d="M6.46486153,48.4549845 C6.53031556,48.5286894 6.59599147,48.6023943 6.66166738,48.6760992 C6.59599147,48.6023943 6.53031556,48.5286894 6.46486153,48.4549845"></path>
                    <path id="Fill-13" fill="#ED5633" d="M46.6188028,36.2335115 C46.5395923,36.3101025 46.4606037,36.3866934 46.3813932,36.4632844 C46.4606037,36.3866934 46.5395923,36.3101025 46.6188028,36.2335115"></path>
                    <path d="M33.8605915,12.2432292 C38.0700623,12.2483353 41.5233727,15.6503053 41.4674594,19.833059 C41.4091055,24.1847567 38.1847733,27.448863 33.7860404,27.4854935 C29.4895933,27.5210139 26.178063,24.0222507 26.1922632,19.7493639 C26.2062416,15.5397479 29.579454,12.2379011 33.8605915,12.2432292 L33.8605915,12.2432292 Z M29.2612808,19.8228468 C29.2515182,22.3685523 31.2876933,24.4340658 33.8026813,24.4300697 C36.3347539,24.4258517 38.3871261,22.3794304 38.3902324,19.8554812 C38.3935606,17.3113298 36.3525041,15.2347162 33.8412881,15.2273901 C31.3371721,15.219842 29.2708216,17.2931256 29.2612808,19.8228468 L29.2612808,19.8228468 Z" id="Fill-14" fill="#1C6472"></path>
                    <path id="Fill-15" fill="#55392B" d="M47.5012119,52.6983449 C47.5699941,52.8366526 47.6385544,52.9749603 47.7073366,53.113268 C47.6385544,52.9749603 47.5699941,52.8366526 47.5012119,52.6983449"></path>
                    <path id="Fill-16" fill="#2CAD2A" d="M46.3862745,49.7687967 C46.3343551,49.7006419 46.2824356,49.632709 46.230738,49.5645542 C46.2569196,49.547238 46.2833231,49.5296997 46.3097266,49.5123835 C46.3299175,49.6022946 46.3501084,49.6922057 46.3700774,49.7823389 L46.3862745,49.7687967"></path>
                    <path id="Fill-17" fill="#55392B" d="M68.4906561,9.70706989 C68.4791184,9.72860416 68.4678026,9.75013842 68.4564869,9.77167269 C68.4249802,9.74880641 68.3936954,9.72616213 68.3621887,9.70329585 C68.3841546,9.68220558 68.4063424,9.66089332 68.4283083,9.63980306 C68.4491649,9.66222534 68.4697995,9.68464761 68.4906561,9.70706989"></path>
                    <path d="M29.2612808,19.8228468 C29.2708216,17.2931256 31.3371721,15.219842 33.8412881,15.2273901 C36.3525041,15.2347162 38.3935606,17.3113298 38.3902324,19.8554812 C38.3871261,22.3794304 36.3347539,24.4258517 33.8026813,24.4300697 C31.2876933,24.4340658 29.2515182,22.3685523 29.2612808,19.8228468 L29.2612808,19.8228468 Z M33.9302612,19.5497835 C34.3742392,19.432344 34.9821851,19.4079237 35.413738,19.1193201 C35.8517253,18.8267205 36.3758013,18.2772637 36.3826796,17.8328143 C36.3895578,17.3934708 35.879682,16.6972702 35.4496822,16.5538565 C34.6455961,16.2854551 33.7225833,16.2053122 32.8730121,16.2894512 C32.0158971,16.3744782 31.1507945,16.8258098 31.1785293,17.8614526 C31.2040452,18.8202824 32.0276567,19.1588366 32.8488274,19.3644112 C33.1689975,19.4445542 33.5007052,19.4778546 33.9302612,19.5497835 L33.9302612,19.5497835 Z" id="Fill-18" fill="#0B2D32"></path>
                    <path d="M33.9302612,19.5497835 C33.5007052,19.4778546 33.1689975,19.4445542 32.8488274,19.3644112 C32.0276567,19.1588366 31.2040452,18.8202824 31.1785293,17.8614526 C31.1507945,16.8258098 32.0158971,16.3744782 32.8730121,16.2894512 C33.7225833,16.2053122 34.6455961,16.2854551 35.4496822,16.5538565 C35.879682,16.6972702 36.3895578,17.3934708 36.3826796,17.8328143 C36.3758013,18.2772637 35.8517253,18.8267205 35.413738,19.1193201 C34.9821851,19.4079237 34.3742392,19.432344 33.9302612,19.5497835" id="Fill-19" fill="#F9F9F8"></path>
                </g>
            </g>
        </g>
    </g>
</svg>