<?xml version="1.0" encoding="UTF-8" standalone="no"?>
<svg width="88px" height="123px" viewBox="0 0 88 123" version="1.1" xmlns="http://www.w3.org/2000/svg" xmlns:xlink="http://www.w3.org/1999/xlink" xmlns:sketch="http://www.bohemiancoding.com/sketch/ns">
    <!-- Generator: Sketch 3.3.3 (12072) - http://www.bohemiancoding.com/sketch -->
    <title>css3</title>
    <desc>Created with Sketch.</desc>
    <defs></defs>
    <g id="Page-1" stroke="none" stroke-width="1" fill="none" fill-rule="evenodd" sketch:type="MSPage">
        <g id="website" sketch:type="MSArtboardGroup" transform="translate(-923.000000, -955.000000)">
            <g id="logos" sketch:type="MSLayerGroup" transform="translate(810.000000, 813.000000)">
                <g id="css3" transform="translate(113.645951, 142.157282)" sketch:type="MSShapeGroup">
                    <g id="Page-1">
                        <g id="Layer_1">
                            <path d="M67.7781422,4.55542036 L60.6016194,4.55542036 L68.0647613,12.6486195 L68.0647613,16.501016 L52.692561,16.501016 L52.692561,11.990624 L60.1542495,11.990624 L52.692561,3.89713438 L52.692561,0.0392182736 L67.7781422,0.0392182736 L67.7781422,4.55542036 L67.7781422,4.55542036 Z M49.6455619,4.55542036 L42.4690391,4.55542036 L49.9318903,12.6486195 L49.9318903,16.501016 L34.55969,16.501016 L34.55969,11.990624 L42.0222505,11.990624 L34.55969,3.89713438 L34.55969,0.0392182736 L49.6455619,0.0392182736 L49.6455619,4.55542036 L49.6455619,4.55542036 Z M31.6903017,4.73872948 L23.9463545,4.73872948 L23.9463545,11.8017953 L31.6903017,11.8017953 L31.6903017,16.501016 L18.4424545,16.501016 L18.4424545,0.0392182736 L31.6903017,0.0392182736 L31.6903017,4.73872948 L31.6903017,4.73872948 Z" id="Shape" fill="#186473"></path>
                            <path d="M7.88987295,112.219459 L0.0206388984,24.0161088 L86.4859955,24.0161088 L78.6094942,112.205224 L43.2004119,122.015602 L7.88987295,112.219459 L7.88987295,112.219459 Z" id="Shape" fill="#186473"></path>
                            <path d="M43.2538986,114.517069 L71.8655162,106.589748 L78.5969946,31.228204 L43.2538986,31.228204 L43.2538986,114.517069 L43.2538986,114.517069 Z" id="Shape" fill="#259CB3"></path>
                            <g id="Group" transform="translate(15.987879, 41.251814)">
                                <path d="M27.2657289,21.9320206 L41.589415,21.9320206 L42.5786287,10.8544561 L27.2657289,10.8544561 L27.2657289,0.0363132163 L27.3032277,0.0363132163 L54.4087871,0.0363132163 L54.1492021,2.93875597 L51.488819,32.749292 L27.2657289,32.749292 L27.2657289,21.9320206 L27.2657289,21.9320206 Z" id="Shape" fill="#FFFFFF"></path>
                                <path d="M27.3305525,50.0262488 L27.2831702,50.0396121 L15.227728,46.7862384 L14.4568216,38.1587992 L8.5991534,38.1587992 L3.59116832,38.1587992 L5.10740062,55.1437978 L27.280554,61.2955472 L27.3305525,61.2816029 L27.3305525,50.0262488 L27.3305525,50.0262488 Z" id="Shape" fill="#EBEBEB"></path>
                                <path d="M40.6693853,32.291455 L39.3659371,46.7789758 L27.2930536,50.035545 L27.2930536,61.290318 L49.483939,55.1437978 L49.6467247,53.3165168 L51.5298061,32.291455 L40.6693853,32.291455 L40.6693853,32.291455 Z" id="Shape" fill="#FFFFFF"></path>
                                <path d="M27.3032277,0.0363132163 L27.3032277,6.75512976 L27.3032277,10.8277296 L27.3032277,10.8544561 L1.19124233,10.8544561 L1.15665037,10.8544561 L0.939505909,8.42292316 L0.446207169,2.93875597 L0.187494218,0.0363132163 L27.3032277,0.0363132163 L27.3032277,0.0363132163 Z" id="Shape" fill="#EBEBEB"></path>
                                <path d="M27.2657289,21.9331827 L27.2657289,28.6522897 L27.2657289,32.7243085 L27.2657289,32.7510351 L15.3974902,32.7510351 L15.3628983,32.7510351 L15.1460445,30.3197926 L14.6524551,24.8356254 L14.3937421,21.9331827 L27.2657289,21.9331827 L27.2657289,21.9331827 Z" id="Shape" fill="#EBEBEB"></path>
                            </g>
                        </g>
                    </g>
                </g>
            </g>
        </g>
    </g>
</svg>