<?xml version="1.0" encoding="UTF-8" standalone="no"?>
<svg width="87px" height="87px" viewBox="0 0 87 87" version="1.1" xmlns="http://www.w3.org/2000/svg" xmlns:xlink="http://www.w3.org/1999/xlink" xmlns:sketch="http://www.bohemiancoding.com/sketch/ns">
    <!-- Generator: Sketch 3.3.3 (12072) - http://www.bohemiancoding.com/sketch -->
    <title>Git</title>
    <desc>Created with Sketch.</desc>
    <defs></defs>
    <g id="Page-1" stroke="none" stroke-width="1" fill="none" fill-rule="evenodd" sketch:type="MSPage">
        <g id="website" sketch:type="MSArtboardGroup" transform="translate(-1035.000000, -978.000000)" fill="#259CB3">
            <g id="logos" sketch:type="MSLayerGroup" transform="translate(810.000000, 813.000000)">
                <path d="M311.532957,207.736173 L311.532957,208.791815 C311.005297,211.002592 309.423111,212.462544 307.89612,213.985307 C296.744492,225.106755 285.60422,236.239286 274.47504,247.383166 C272.951219,248.909096 271.489987,250.490183 269.277937,251.017476 L268.221562,251.017476 C266.051502,250.52713 264.585517,249.033134 263.085728,247.530164 C251.805487,236.223979 240.508079,224.935213 229.19509,213.662017 C227.690811,212.16327 226.186796,210.702262 225.702448,208.527904 L225.702448,207.472263 C226.230372,205.262277 227.810445,203.800742 229.338493,202.279298 C236.849586,194.800342 244.339553,187.300009 251.838498,179.808913 C252.204268,179.443661 252.584828,179.093452 253.012396,178.684655 C256.142172,181.797478 259.207774,184.818724 262.217387,187.894599 C262.452959,188.135549 262.39433,188.778963 262.307443,189.201219 C261.719835,192.056466 262.725504,194.757325 265.173126,196.280615 C265.983366,196.784948 266.183285,197.333882 266.180644,198.19159 C266.159253,205.094166 266.155291,211.997006 266.18487,218.899582 C266.188831,219.821421 265.946393,220.392259 265.117402,220.926414 C262.613792,222.53917 261.593334,225.47359 262.393802,228.296903 C263.153072,230.974538 265.720329,233.003217 268.508368,233.129366 C271.358997,233.258154 274.108214,231.427672 275.086154,228.74951 C276.086541,226.010384 275.262832,222.981748 272.891534,221.192436 C272.131471,220.618959 271.86817,220.040731 271.872924,219.120739 C271.906992,212.48181 271.889561,205.84288 271.895107,199.203951 C271.895371,198.796473 271.951359,198.389259 272.005499,197.65638 C274.691069,200.344571 277.12443,202.80923 279.596613,205.234303 C280.195314,205.821503 280.354034,206.351435 280.155436,207.206241 C279.48226,210.100019 280.891993,213.025465 283.506259,214.439497 C286.06612,215.824235 289.202499,215.400922 291.313138,213.385703 C293.427737,211.366788 293.972035,208.255813 292.66926,205.634391 C291.333473,202.946992 288.583991,201.601049 285.554042,202.036501 C285.040644,202.110132 284.306727,201.89874 283.939901,201.544572 C281.187778,198.887258 278.484514,196.177954 275.818486,193.433814 C275.499461,193.105246 275.305616,192.439136 275.378241,191.980987 C276.061716,187.68136 273.06029,183.938319 268.687687,184.170824 C266.926973,184.264512 265.960918,183.639836 264.893187,182.538274 C262.328571,179.892309 259.692914,177.315224 257.011305,174.635742 C258.982502,172.666706 260.893221,170.79479 262.760893,168.880912 C264.268076,167.336508 265.748851,165.778645 267.957468,165.246602 L269.013843,165.246602 C271.187864,165.731405 272.650152,167.231736 274.149413,168.734442 C285.430182,180.039834 296.727326,191.328865 308.040579,202.602061 C309.544594,204.100808 311.04808,205.562343 311.532957,207.736173" id="Git" sketch:type="MSShapeGroup"></path>
            </g>
        </g>
    </g>
</svg>