<?xml version="1.0" encoding="UTF-8" standalone="no"?>
<svg width="79px" height="105px" viewBox="0 0 79 105" version="1.1" xmlns="http://www.w3.org/2000/svg" xmlns:xlink="http://www.w3.org/1999/xlink" xmlns:sketch="http://www.bohemiancoding.com/sketch/ns">
    <!-- Generator: Sketch 3.3.3 (12072) - http://www.bohemiancoding.com/sketch -->
    <title>Grunt</title>
    <desc>Created with Sketch.</desc>
    <defs></defs>
    <g id="Page-1" stroke="none" stroke-width="1" fill="none" fill-rule="evenodd" sketch:type="MSPage">
        <g id="website" sketch:type="MSArtboardGroup" transform="translate(-927.000000, -1117.000000)">
            <g id="logos" sketch:type="MSLayerGroup" transform="translate(810.000000, 813.000000)">
                <g id="Grunt" transform="translate(117.619586, 304.168932)" sketch:type="MSShapeGroup">
                    <path d="M66.0885669,73.8138508 C68.7588186,71.366132 70.4334161,68.5276793 71.064033,64.9874648 C71.761746,65.4106877 72.1943108,66.0262454 72.6601001,66.6019499 C77.4295315,72.4956651 77.2280275,86.2268023 66.436129,90.3017852 C65.8357161,90.5285582 65.5489936,90.93532 65.2657229,91.4590422 C62.4897572,96.5886169 58.3418814,99.826684 52.5034431,100.692407 C52.1722776,100.741573 51.8760624,100.814998 51.6115614,101.01708 C47.4645486,104.187353 42.6618927,104.889981 37.6434937,104.710859 C33.469513,104.561843 29.5470887,103.581326 26.1748092,100.94907 C25.7985533,100.655369 25.3562801,100.710817 24.9414062,100.637609 C19.3448159,99.6495109 15.34645,96.485302 12.6749039,91.5385319 C12.3318724,90.9036974 11.9206662,90.4995347 11.2412913,90.2123322 C5.08851545,87.6108323 1.94621801,82.2310925 2.30327275,75.0304544 C2.48665433,71.3293112 3.70538679,68.0676355 6.29840245,65.3760328 C6.41900281,65.250842 6.56355065,65.1490432 6.8023782,64.9473951 C7.4444295,68.4964898 9.10931858,71.3643993 11.7912204,73.8051871 C12.2283158,71.2827437 12.2949804,68.8757444 12.4354291,66.4800079 C12.5430849,64.6441647 12.5976679,62.7983582 12.5426534,60.9612154 C12.4664961,58.4136471 11.4468945,56.4023635 9.06616997,55.1842438 C6.95836042,54.1056101 4.85572871,52.9986026 3.03593613,51.4428143 C0.677648904,49.4267656 -0.412932188,46.9686503 0.431054604,43.8505758 C0.848085909,42.3097324 1.83467885,41.1490099 3.13819833,40.3359193 C4.59597408,39.426878 5.06305778,38.0894155 5.16316255,36.513484 C5.20911582,35.7935285 5.21839277,35.0711905 5.24557639,34.350152 C5.30620019,32.7391324 5.13792061,31.2240635 4.05100715,29.8848683 C3.37573142,29.0529342 3.01932391,27.9996418 2.71081136,26.956746 C1.54428871,23.0158342 3.53969614,19.7784169 7.58811437,19.0560789 C9.60768501,18.695668 9.59732935,18.6948016 9.77682756,16.6425818 C9.95589429,14.5981594 9.28212876,13.0081493 7.52447017,11.8491596 C5.58019385,10.5671449 3.4106818,10.0256621 0.979689166,9.63926002 C1.80425908,8.48221959 2.62926049,7.49758729 3.70668125,6.72716558 C8.44590872,3.33726673 15.0260716,3.1934489 20.1704645,6.38083319 C22.6469789,7.91539541 24.6939489,9.92711227 26.5029543,12.1941924 C26.831531,12.6061525 27.0971107,12.9431714 27.7367888,12.7395739 C28.3941579,12.5301283 28.2217792,12.0555728 28.2623389,11.6193543 C28.5900526,8.08303848 30.1759797,5.24306955 33.0099803,3.1304203 C33.8584977,2.49775181 34.0306607,2.62575834 34.0744565,3.69854404 C34.1391794,5.27837423 34.2002347,6.86015375 35.432559,8.35074757 C35.8470014,6.1538436 36.6739444,4.36456787 38.2003265,2.97404007 C39.6755774,1.63051297 41.3965597,0.719955516 43.4161303,0.041152692 C42.6109773,2.65391545 42.7365397,5.1061827 43.8448118,7.53722383 C45.8494961,5.94894651 47.8317432,4.40333804 50.6616448,4.49127485 C49.9341592,6.10056169 49.2260905,7.5918053 48.9115372,9.23033222 C48.8019397,9.80278782 48.738727,10.3702618 48.7365696,10.9474824 C48.7313917,12.328047 49.0897409,12.6737296 50.47589,12.8082339 C51.0139531,12.8602162 51.1451249,12.4640674 51.3766172,12.1792475 C53.2052552,9.92819523 55.2120971,7.85431615 57.7270137,6.38711439 C62.7663398,3.44729603 67.9051233,3.21640777 73.095038,6.03493398 C74.6356591,6.87163319 75.8248348,8.07437476 76.8714043,9.60633786 C76.2239594,9.740409 75.6761878,9.86863213 75.1230227,9.96588244 C73.732343,10.2101995 72.4053075,10.6518328 71.1831232,11.3538111 C68.0673621,13.14352 67.6688847,14.7387283 68.3961545,18.4649963 C68.4798628,18.8927677 68.7545037,18.8225915 69.025477,18.8682927 C69.6617032,18.9750731 70.3082851,19.0493645 70.9285464,19.2183071 C74.6050236,20.2198337 76.2658136,23.1906249 75.2097514,26.8640441 C74.8084693,28.2597702 74.1709486,29.5510983 73.3159589,30.7204846 C72.9146768,31.2691149 72.6956977,31.8472019 72.6976393,32.519507 C72.7015227,33.7818117 72.676928,35.0447661 72.7131728,36.3059878 C72.7621465,38.0053774 73.2838132,39.4054353 74.8354372,40.4104274 C76.9661155,41.7905587 77.904382,43.8594561 77.7043882,46.4282505 C77.5747266,48.0947179 76.819626,49.4484249 75.6977621,50.6256085 C73.8518646,52.5623841 71.5347843,53.8207901 69.1844796,54.9739319 C66.4188695,56.3306711 65.2991631,58.5503174 65.3222476,61.5117951 C65.3530989,65.4470754 65.5222414,69.3743417 65.9968761,73.2838475 C66.0124096,73.4114208 66.0402405,73.5372614 66.0885669,73.8138508" id="Fill-1" fill="#0B2D32"></path>
                    <path d="M8.863803,33.5725827 C8.64288212,31.5827417 8.57621752,29.5658267 7.86297101,27.5287684 C7.5717179,28.2487239 7.85261534,28.9348909 7.46470935,29.5632275 C6.46840797,28.3544214 5.76292821,27.0286549 5.44039236,25.5352454 C5.06650966,23.8050996 5.92171509,22.5293661 7.72813161,22.1018113 C10.2195323,21.5120282 12.6574287,22.0062937 15.0657683,22.6287823 C20.2599979,23.9707933 24.5606197,26.9849031 28.8006178,30.1036274 C29.3667275,30.5199193 29.93219,30.9368611 30.7561127,31.5435384 C30.1047845,30.0135246 29.1593984,29.0646302 28.4720411,27.9530743 C27.1633438,25.6846946 25.9525938,23.3602173 24.7353716,21.0437539 C24.1136001,19.8609389 23.9515771,18.4961857 25.0251145,17.3402282 C27.6627889,16.0512826 30.4853552,15.3638161 33.3648776,15.0068706 C39.0018119,14.3083578 44.5966763,14.5165038 50.0659782,16.2449169 C51.0204254,16.5466311 51.9798348,16.8409811 52.8585562,17.3400117 C53.9312306,18.4961857 53.7694233,19.8607223 53.1478676,21.0441871 C51.9310768,23.3608671 50.7179537,25.6842614 49.412061,27.9543739 C48.7229778,29.0648468 47.7788862,30.0141744 47.1284209,31.5428886 C48.5018411,30.5309656 49.6036409,29.6884184 50.7360761,28.8898395 C54.7169668,26.0825762 58.7994724,23.4726291 63.6530437,22.4195534 C65.766894,21.9610258 67.8906686,21.576573 70.0500407,22.0829677 C72.1474946,22.5748507 72.9211491,23.9638623 72.3004564,26.0559352 C71.9183755,27.3440145 71.2953096,28.4999719 70.4180983,29.5621446 C70.0310553,28.9344577 70.3123842,28.2482907 70.0198367,27.5292016 C69.3078846,29.5664764 69.2405728,31.5831749 69.0205149,33.5734491 C68.8241887,36.7359252 68.6649704,39.8947192 69.6338724,42.9824706 C69.9169272,43.8843643 70.2970665,44.7234461 70.8592929,45.493218 C71.5671458,46.4626888 71.498971,46.9277142 70.5453867,47.6805919 C68.9756403,48.9195045 67.2002908,49.8196655 65.3203059,50.4376056 C62.5644043,51.3433981 61.2332697,53.3269578 60.7245476,56.0417359 C60.5782738,56.8229873 60.5131194,57.6129024 60.4315685,58.4017345 C60.4058951,58.6497336 60.3232655,58.9176593 60.0197151,58.9661762 C59.7189693,59.0144764 59.5651445,58.7857541 59.4393663,58.5672117 C59.0678567,57.921331 58.9226617,57.2020252 58.8849066,56.8006782 C59.0115478,57.1849144 58.9910522,57.9128838 58.981128,58.6382542 C58.9224459,62.9361114 59.0784282,67.2149084 60.0367588,71.4291606 C60.2928458,72.5552282 60.5599356,73.6756644 60.9137542,74.7759575 C61.0656373,75.248347 61.2813804,75.7287506 61.0574391,76.2444588 C60.3107524,76.5552699 59.5299784,76.6902074 58.7252568,76.7040694 C57.9125527,76.981092 57.554635,76.413618 57.1801051,75.8697527 C54.7743544,72.3758891 52.3396942,68.9008692 50.2489283,65.200809 C49.7440896,64.1745908 49.2390351,63.1483726 48.7341964,62.1221545 C48.7974091,64.1509822 49.1939448,66.1139656 49.6580081,68.0585386 C50.1339373,70.0514118 50.663155,72.0341052 51.2484658,73.9975218 C51.8320508,75.9559568 52.514446,77.8847184 53.1826022,79.9152789 C43.6687654,79.7417878 34.2341063,79.7344237 24.6628819,79.9198274 C26.7728489,74.0796106 28.4614697,68.227048 29.1906812,62.0994122 C28.593073,63.2744298 27.9954647,64.4496641 27.3978565,65.6246817 C25.3120527,69.2274916 22.9056548,72.620856 20.6034608,76.0820139 C20.2656072,76.5899248 19.8280803,76.9360406 19.1590611,76.703203 C18.353908,76.6917236 17.573134,76.5541869 16.8260158,76.2442422 C16.6342202,75.8502593 16.7546049,75.4601751 16.874558,75.0874184 C18.5161468,69.9885998 18.9918602,64.7398989 18.9059945,59.4151737 C18.8939129,58.6607799 18.8427818,57.9024874 18.9633822,57.1498263 C19.0011372,56.9148228 18.9935862,56.669856 19.0091197,56.6460307 C18.9890556,57.1301163 18.8309159,57.7974397 18.5265025,58.4162462 C18.3834648,58.7069142 18.2149695,59.0486981 17.8233959,58.9585954 C17.5015073,58.884304 17.4423937,58.5440362 17.4270759,58.2553176 C17.3865162,57.498108 17.284254,56.7495622 17.152435,56.0044819 C16.6767216,53.3154784 15.3287591,51.3784861 12.6388748,50.4722605 C10.832674,49.8638505 9.12442059,49.0083077 7.57754296,47.8698943 C6.34845484,46.9651848 6.28804678,46.5441278 7.15080322,45.3008833 C8.43166968,43.4546436 8.82885262,41.3207682 8.93780286,39.157003 C9.0312196,37.3027493 9.14362172,35.4300853 8.863803,33.5725827" id="Fill-2" fill="#259CB3"></path>
                    <path d="M22.8612117,91.6234364 C21.9570326,89.8166166 21.1467018,87.9814231 21.1199496,85.9047283 C21.1033374,84.6043033 21.7240302,83.711723 22.8737248,83.178904 C23.8305452,82.7353213 24.8501469,82.524143 25.9005998,82.5234932 C34.5950445,82.517212 43.2897049,82.4821239 51.9837181,82.5360556 C56.2120661,82.5622634 57.6219469,84.6419905 56.2696695,88.6519954 C55.926638,89.6689001 55.6204986,90.7102798 55.0231061,91.623653 C53.4831323,93.9661075 51.1899995,95.2868923 48.644663,96.1640944 C41.6923434,98.5604807 34.7618138,98.4708111 27.9462753,95.6364736 C25.9139758,94.7911107 24.0883582,93.5578295 22.8612117,91.6234364" id="Fill-3" fill="#259CB3"></path>
                    <path d="M8.863803,33.5725827 C9.46960947,35.6804669 9.38525393,37.8373011 9.17684615,39.9720429 C8.95937716,42.2010026 8.40578051,44.3355278 6.9296666,46.1501449 C6.33464728,46.8813633 7.22480308,47.2432904 7.64442331,47.5549679 C9.23919589,48.7399488 11.010662,49.6294967 12.8910784,50.2498194 C15.6780471,51.1690406 16.9757415,53.2433529 17.4626735,55.9730759 C17.6285799,56.9031267 17.6876935,57.8522378 17.8160606,58.9698583 C18.6052487,58.0443559 18.5651205,56.9626898 19.0794519,56.1285898 C19.8673455,60.7996369 18.7478548,70.7854459 16.8260158,76.2442422 C16.7899867,76.2453252 16.7528789,76.2533391 16.71836,76.2466247 C14.8446317,75.8875133 14.7492733,75.7534422 14.9289872,73.8874925 C15.3442926,69.5788056 15.601674,65.2610219 15.5259482,60.9308923 C15.4610096,57.2228182 14.021572,54.3453786 10.5899631,52.5881587 C8.55140707,51.5441799 6.45913102,50.5322568 4.87255667,48.7841338 C2.92439697,46.6372628 3.42082172,43.4633073 6.0084438,42.0461386 C5.88805918,42.8741741 5.77652002,43.6400473 5.66519661,44.4059206 C7.87073776,41.1299497 8.76542417,37.4693094 8.863803,33.5725827" id="Fill-4" fill="#1C6472"></path>
                    <path d="M61.0574391,76.2444588 C59.8816395,72.5799199 59.1084164,68.8577672 58.842621,64.9902805 C58.6393911,62.0311853 58.8264403,59.0872517 58.6374494,55.8753924 C59.3090575,56.9371319 59.3185502,58.02248 60.0065547,58.8175933 C60.1968401,57.6746314 60.2855105,56.5518127 60.5150611,55.4489206 C61.1603485,52.3512058 63.1846655,50.6879873 66.0896456,49.7990891 C67.6339343,49.3266996 69.0164158,48.4451656 70.3412938,47.5088335 C71.1009251,46.9723324 71.3334961,46.4665875 70.6042846,45.5997818 C69.2604212,44.002191 68.9022877,41.9744462 68.7074717,39.9709599 C68.4997112,37.836868 68.4123352,35.6802503 69.0205149,33.5734491 C69.1037917,37.4612955 70.0301923,41.1052581 72.205098,44.4052708 C72.1000311,43.6389643 71.9949642,42.8726579 71.8816992,42.0478713 C74.4151697,43.4492288 74.9400726,46.5906953 73.0838194,48.7081096 C71.9945328,49.9504877 70.5943604,50.7618455 69.1875,51.564323 C68.4697229,51.9739006 67.7512986,52.384128 67.016262,52.7607834 C63.9093464,54.3523096 62.5171565,57.0460782 62.3842588,60.392875 C62.2069181,64.8642233 62.5244918,69.3279908 62.9451907,73.7811453 C62.9484269,73.8170997 62.9510158,73.8530542 62.9546834,73.8890086 C63.1430271,75.7753181 63.0185434,75.929749 61.0574391,76.2444588" id="Fill-5" fill="#1C6472"></path>
                    <path d="M22.8612117,91.6234364 C23.6102716,92.2855615 24.3217922,92.9975031 25.1152951,93.6007149 C28.0802517,95.8556658 31.5109976,96.8461462 35.1525245,97.2628713 C40.0939032,97.8283959 44.9172704,97.4647361 49.5490579,95.5063011 C51.1095273,94.8465585 52.5338629,93.970656 53.7566945,92.779827 C54.165959,92.3810791 54.6002498,92.0081057 55.0231061,91.623653 C53.0354655,96.184021 49.8366433,99.5401313 45.0288096,100.944305 C38.8225294,102.756756 32.8544296,102.286315 27.5952614,98.0837592 C25.4583265,96.3761391 23.8946209,94.1792351 22.8612117,91.6234364" id="Fill-6" fill="#1C6472"></path>
                    <path d="M59.76708,85.3350884 C59.5500425,83.1529128 57.7198942,81.8793453 56.7244558,80.0417693 C62.8552259,79.4504701 68.4142769,77.9824019 71.4178516,71.9123799 C72.1390806,72.1001661 71.9134134,72.719839 71.8965854,73.1491266 C71.7009065,78.1450634 68.9974304,82.864844 63.7891775,84.7617665 C62.8440073,85.1061495 61.8703589,85.3376876 60.882903,85.5161603 C60.4898192,85.5872028 60.0988928,85.6450332 59.76708,85.3350884" id="Fill-7" fill="#FEFEFE"></path>
                    <path d="M6.46517182,71.9121633 C9.25839702,77.1010846 13.2863197,79.3382748 21.1659029,80.0012664 C20.2194382,81.8667829 18.3191734,83.1390508 18.1172379,85.3357382 C17.7474544,85.6751396 17.3209304,85.5681426 16.8957008,85.4968835 C10.8352629,84.4832277 6.83322946,80.3365525 6.02095689,74.2253778 C5.94976169,73.6890932 5.93811156,73.1480436 5.99700942,72.6124088 C6.02915513,72.3189252 5.98428058,71.9240759 6.46517182,71.9121633" id="Fill-8" fill="#FEFEFE"></path>
                    <path d="M59.76708,85.3350884 C65.774445,84.8531688 70.2263028,81.244944 71.398219,75.1448155 C71.6029591,74.0800438 71.9175125,72.9920966 71.4178516,71.9123799 C71.451076,71.5482868 71.6018804,71.2348766 71.8728537,70.8556221 C72.5028234,71.6648139 72.544246,72.6098097 72.6359368,73.4876616 C72.8350677,75.3921649 72.8085313,77.3061982 72.389774,79.1892588 C71.2707148,84.2220164 67.4130135,87.6792757 61.9342188,88.5772708 C61.7924757,88.6004462 61.6487908,88.6117091 61.5072634,88.6351011 C59.3683868,88.9879313 59.3772323,88.9894475 59.68143,86.8443093 C59.7519779,86.3472281 59.7407593,85.8384508 59.76708,85.3350884" id="Fill-9" fill="#C8C8C9"></path>
                    <path d="M6.46517182,71.9121633 C5.90251396,73.3386455 6.36247813,74.7259244 6.70658829,76.0830969 C8.12121544,81.6629688 12.4938955,84.889773 18.1172379,85.3357382 C18.1392437,86.3097575 18.191885,87.280961 18.4956512,88.2159935 C18.6619891,88.7280196 18.4427942,88.7981958 17.9800254,88.8183389 C11.3746206,89.1051082 5.46196667,83.6419801 5.1864628,76.9440545 C5.1027545,74.9046138 5.02789166,72.8510944 5.92322529,70.8547557 C6.31350446,71.1586358 6.39937019,71.530093 6.46517182,71.9121633" id="Fill-10" fill="#C8C8C9"></path>
                    <path d="M7.22027248,8.13393786 C12.6304608,6.03926584 17.5925508,7.32972763 21.4649228,11.79891 C21.9827061,12.3964904 22.4474166,13.0404217 22.95506,13.6477488 C23.3019748,14.0627412 23.3509485,14.2983945 22.7652061,14.5951271 C21.1525268,15.4125495 21.2062468,15.4162316 20.0815784,14.0153073 C17.3740031,10.6427359 14.0028023,8.67931933 9.52332948,9.16015605 C8.86790211,9.23054881 8.82345905,9.18896293 7.22027248,8.13393786" id="Fill-11" fill="#259CB3"></path>
                    <path d="M70.6895031,8.16231156 C69.6975166,8.74819594 68.8757513,9.22708332 67.6693162,9.14867661 C63.1410854,8.85389338 59.8894063,11.1320198 57.3350086,14.662271 C57.1468807,14.9221827 57.0983385,15.5028688 56.6329807,15.3183315 C55.942603,15.0443412 55.3087499,14.6250169 54.6628153,14.247062 C54.6367104,14.2316838 54.7169668,13.9966803 54.7754331,13.8775541 C56.7622108,9.82119823 62.3868477,6.70160759 66.8822856,7.19435693 C68.1499917,7.33319312 69.4103626,7.56061589 70.6895031,8.16231156" id="Fill-12" fill="#259CB3"></path>
                    <path d="M11.5198156,11.4740203 C13.4427334,11.5979116 14.8942526,12.2619861 16.0670318,13.5184427 C16.4068271,13.8825357 16.6967857,14.3042425 16.9558931,14.7322305 C18.3705203,17.0690537 18.2678266,17.7064872 16.2350956,19.4762695 C15.6929333,19.9482259 13.655456,19.2683402 13.3050893,18.5187114 C12.9296964,17.7158007 12.8839589,16.8414143 12.8097433,15.994102 C12.6746881,14.4523922 12.5417904,12.9293094 11.5198156,11.4740203" id="Fill-13" fill="#1C6472"></path>
                    <path d="M66.3878025,11.4647068 C65.0696125,13.2528996 65.1973324,15.1777626 64.9569946,17.0084076 C64.7026336,18.94475 64.0489322,19.6081748 62.1667898,19.682033 C61.866044,19.6939456 61.7102776,19.555326 61.5465286,19.3521617 C61.3217243,19.0731898 61.0913108,18.7968169 60.8427748,18.5392877 C59.6337508,17.2862966 59.6423805,17.2938773 60.3838893,15.7240104 C61.5387618,13.2784575 63.326193,11.7213696 66.3878025,11.4647068" id="Fill-14" fill="#1C6472"></path>
                    <path d="M25.0251145,17.3402282 C24.2354949,19.0848858 24.6892026,20.6159825 25.6285478,22.1966791 C26.7197761,24.0329555 27.8856515,25.8555866 28.4720411,27.9530743 C26.9847086,26.3975026 25.5062215,24.8362994 23.7720789,23.5406394 C22.4215274,22.5319652 20.9734601,21.6922337 19.3737254,20.8966872 C20.998702,19.1630759 22.9438413,18.1446551 25.0251145,17.3402282" id="Fill-15" fill="#1C6472"></path>
                    <path d="M49.412061,27.9543739 C49.9965089,25.8560198 51.1632473,24.0333887 52.2544757,22.1968957 C53.1940366,20.6159825 53.6475285,19.0848858 52.8585562,17.3397951 C54.9391821,18.1455214 56.8851844,19.1619929 58.517712,20.9053509 C55.5585804,22.2766019 53.087891,24.1507822 50.8896851,26.3964196 C50.3889455,26.9077959 49.9041709,27.434767 49.412061,27.9543739" id="Fill-16" fill="#1C6472"></path>
                    <path d="M50.2489283,65.200809 C51.4318474,66.3288259 52.0432632,67.8542913 52.9698796,69.1622971 C54.5435094,71.3834595 56.0407661,73.6598531 57.5378071,75.9342974 C57.8411418,76.3952076 58.1606572,76.7077515 58.7250411,76.7038528 C57.6855911,77.0081661 56.600835,76.9221786 55.5434784,77.0733606 C55.0440332,77.1448364 54.8433922,76.8184305 54.6884887,76.4266136 C53.2093544,72.6843177 51.7289256,68.9426717 50.2489283,65.200809" id="Fill-17" fill="#1C6472"></path>
                    <path d="M19.1590611,76.703203 C19.8177246,76.7125165 20.1745636,76.2953582 20.502493,75.7930787 C22.5911014,72.5944316 24.6879081,69.4014159 26.7942074,66.2146814 C26.9458748,65.9850927 27.1944108,65.8198321 27.3978565,65.6246817 C26.9581722,67.3314355 26.1258355,68.8859243 25.5088104,70.524018 C24.7884444,72.4374016 24.0040027,74.3267433 23.2918349,76.2431592 C23.0316487,76.9436214 22.6021043,77.2228099 21.9046071,77.0568996 C20.9999965,76.841606 20.0444705,77.049752 19.1590611,76.703203" id="Fill-18" fill="#1C6472"></path>
                    <path d="M61.6446917,91.73065 C60.0369745,93.9959974 58.1392987,95.6906219 55.4904056,96.8379156 C56.3555352,95.3533864 57.1117146,94.0635744 57.6793345,92.6780282 C57.8491243,92.2636856 58.1287273,92.0988583 58.5787673,92.0655029 C59.5373136,91.994677 60.4913294,91.861039 61.6446917,91.73065" id="Fill-19" fill="#259CB3"></path>
                    <path d="M16.3617368,91.7458115 C17.3569594,91.8573569 18.341395,92.0042071 19.3310083,92.0642034 C19.8591473,92.0962591 20.0848145,92.3789132 20.2606451,92.7991038 C20.8146732,94.1242205 21.5225261,95.3687645 22.2720175,96.6063776 C20.5145746,96.3180921 17.4367844,93.7833029 16.3617368,91.7458115" id="Fill-20" fill="#259CB3"></path>
                    <path d="M33.4414664,44.1800139 C34.0207365,44.2699001 34.5219076,43.8995259 35.0862914,43.869636 C35.0668745,45.6764558 33.695396,47.2508711 31.694595,47.6084664 C31.00357,47.7319244 30.8993661,47.985555 30.8167365,48.6212558 C30.5511568,50.6700101 29.6275609,52.4397924 28.2532777,53.9732717 C27.8174767,53.4304893 28.1339718,52.8625822 28.2317034,52.3215326 C28.4323444,51.2097601 28.5050498,50.1181308 28.1652545,49.0158884 C27.965045,48.3665423 27.6679668,48.0704595 27.011245,48.4837192 C23.4564468,50.7206929 17.8551101,48.3877684 15.8476211,45.5989154 C14.9158269,44.3047716 14.4871455,42.8561968 14.268382,41.3138372 C14.2342946,40.8570424 14.2002072,40.4002475 14.1464872,39.680292 C13.4647392,40.623555 13.5316195,41.5280478 13.2813576,42.3339908 C11.825955,40.6679566 11.8921881,38.1953296 13.4608558,36.2464247 C12.7133061,35.9873793 11.9810742,35.734182 11.2505683,35.4762196 C11.2378395,35.4716711 11.2309357,35.3895823 11.2456062,35.3794025 C11.3038568,35.3391162 11.3720316,35.313125 11.4365388,35.281719 C14.3814314,34.2780265 17.2454203,34.7655776 20.0282898,35.8704191 C22.5533464,36.8730286 24.8065668,38.3343823 26.6772747,40.3445831 C27.0442536,40.7389991 27.4655998,41.0851149 27.8114359,41.4962086 C29.2864711,43.2506129 31.1927766,44.0721506 33.4414664,44.1800139" id="Fill-21" fill="#0B2D32"></path>
                    <path d="M66.4467004,35.281719 C66.4797091,35.2960141 66.5228577,35.3016455 66.5433533,35.3263372 C66.5808925,35.3716051 66.6050558,35.4279193 66.6348283,35.4794685 C65.9028122,35.7335322 65.170796,35.9873793 64.4232463,36.2466413 C65.9901881,38.1903479 66.0555582,40.6811688 64.5893685,42.347203 C64.3917479,41.5174348 64.3598179,40.6592929 63.8890666,39.7833903 C63.5777494,40.3378687 63.6720291,40.8431804 63.6157201,41.3162198 C62.9648234,47.219032 58.1069372,49.1306828 54.2589443,49.4055395 C53.1519667,49.4845959 52.071957,49.0947283 51.0605536,48.5861677 C50.0920831,48.0992664 49.9684623,48.1666268 49.6634017,49.2218685 C49.3652448,50.2528517 49.4672913,51.2814524 49.6517516,52.320233 C49.747973,52.8619324 50.0657625,53.4296229 49.6297458,53.9728385 C48.2250428,52.3717822 47.2494528,50.5565153 47.0546368,48.4068286 C47.0026427,47.8335066 46.7879784,47.7299751 46.2937111,47.6340244 C44.187196,47.2255297 42.8200323,45.731687 42.7971635,43.8689862 C43.3615473,43.8993093 43.8625027,44.2701167 44.4417728,44.1800139 C46.6902468,44.0721506 48.5657011,43.2235387 50.0754709,41.5005405 C52.1852221,39.0924583 54.6830951,37.1994344 57.6467573,35.934314 C59.9830387,34.9369027 62.4099323,34.663129 64.9106099,34.8229748 C65.4529879,34.8574131 65.9241707,35.1632425 66.4467004,35.281719" id="Fill-22" fill="#0B2D32"></path>
                    <path d="M49.6297458,53.9728385 C49.5164807,53.3035658 49.4055887,52.6338598 49.2888718,51.9650203 C49.1456184,51.1441324 49.0992336,50.3147974 49.289519,49.5045225 C49.4278103,48.9151726 49.5201483,48.1432348 49.9231563,47.8348062 C50.36845,47.4938886 50.8650904,48.2166598 51.3369205,48.4614101 C54.7529959,50.2333583 61.3776018,48.149516 62.9842402,43.2456312 C63.1948055,42.6027829 63.4053707,41.9597179 63.6159359,41.3164364 C63.2968519,47.329711 59.9416161,52.0607545 53.5398727,52.0024909 C53.0529407,51.998159 52.430522,51.5268524 52.1353855,51.955057 C51.7901966,52.4556037 52.2184466,53.1172957 52.3291227,53.7007975 C52.4218923,54.1898648 52.6290056,54.6607382 52.8169178,55.1270632 C52.9877863,55.5515857 53.2009404,55.9589974 53.477523,56.5487804 C51.8277359,56.0079474 50.5626187,55.2457562 49.6297458,53.9728385" id="Fill-23" fill="#1C6472"></path>
                    <path d="M14.268382,41.3138372 C14.4785157,41.9571188 14.6664279,42.6086309 14.9024508,43.2421658 C16.4812584,47.4828424 21.7648056,50.1328591 25.839113,48.7150406 C26.373077,48.5292037 26.9130819,48.2794718 27.3581598,47.9383377 C27.9149926,47.5116492 28.0424967,47.7988517 28.2347238,48.2643103 C28.8679296,49.7971398 28.7671776,51.3494627 28.4271666,52.9188964 C28.3518722,53.2665283 28.3104496,53.6215244 28.2532777,53.9732717 C27.32774,55.2511711 26.0477365,55.9886706 24.3396988,56.5946981 C25.1284554,55.1864097 25.6089152,53.9351513 25.808046,52.5866425 C25.8796727,52.1019071 25.994448,51.749077 25.233738,51.8588897 C20.6783236,52.5164664 16.6577362,50.0278115 15.1128003,45.6015146 C14.6301831,44.2187841 14.1801431,42.8161271 14.268382,41.3138372" id="Fill-24" fill="#1C6472"></path>
                    <path d="M66.4467004,35.281719 C59.796421,34.2015691 54.631101,36.9369236 50.2607942,41.6655845 C49.0321375,42.995033 47.6997085,44.0751829 45.8192921,44.2813795 C45.3409898,44.3337951 44.8928915,44.330113 44.4417728,44.1800139 C46.938567,43.3506789 48.4194273,41.4288482 49.7930633,39.322047 C52.0549133,35.8533082 55.3730414,34.2126154 59.4469173,34.0031698 C61.7010006,33.8870759 63.9378245,33.8814445 66.0115466,34.9780554 C66.1666659,35.0601442 66.3021525,35.1797036 66.4467004,35.281719" id="Fill-25" fill="#1C6472"></path>
                    <path d="M33.4414664,44.1800139 C31.4190911,44.5791951 29.7746976,43.8204694 28.3848809,42.4310245 C26.9083355,40.9547259 25.4950028,39.4208134 23.7710002,38.2120072 C20.0392927,35.5953458 15.9587288,34.5162789 11.4363231,35.281719 C12.6341284,34.4019177 14.0243766,34.0813599 15.4592836,34.0196309 C17.4096007,33.9358094 19.3666059,33.8229643 21.2830514,34.4220609 C24.061606,35.2908159 26.4380157,36.7010537 28.0563043,39.2159163 C29.1235851,40.8745864 30.1436182,42.5848056 32.0056964,43.5072757 C32.4792524,43.7418461 32.9625168,43.9562733 33.4414664,44.1800139" id="Fill-26" fill="#1C6472"></path>
                    <path d="M33.6168655,35.0926332 C33.1853794,34.7205262 32.9105228,34.2388231 32.555194,33.6763308 C36.8297109,35.1030297 40.9808228,35.1021633 45.2124069,33.7179167 C45.1414275,34.2379568 44.7133933,34.5411871 44.3710091,34.896833 C41.7147807,37.0779257 37.1964741,37.312496 34.1620482,35.4268364 C33.9810398,35.3142079 33.8371391,35.1407169 33.6168655,35.0926332" id="Fill-27" fill="#1C6472"></path>
                    <path d="M33.6168655,35.0926332 C33.9866491,34.8836208 34.2259081,35.2230222 34.4822108,35.3471301 C37.5405843,36.8279772 40.5711268,36.7426395 43.5949813,35.2583269 C43.8510683,35.1324863 44.1123331,35.0170422 44.3710091,34.8966164 C43.4791273,36.0510577 42.3671877,36.9503523 41.1316272,37.7040964 C39.6751459,38.5925613 38.2212536,38.5838976 36.7548481,37.7103776 C35.5686928,37.0036342 34.5575052,36.092427 33.6168655,35.0926332" id="Fill-28" fill="#0B2D32"></path>
                    <path d="M43.3990866,87.4405901 C43.3833374,86.229618 43.7699489,85.674923 44.9983898,85.6331206 C47.3279832,85.5540641 49.6675008,85.5137778 51.9925636,85.6439502 C53.81926,85.7459656 54.1266938,86.6485091 53.2624272,88.7520614 C52.7347197,90.2467705 51.7077828,91.3277868 50.3913187,92.1348127 C48.9212456,93.0360567 47.1646657,92.8742616 45.945286,91.621487 C44.7923552,90.4373725 43.7826778,89.1187536 43.3990866,87.4405901" id="Fill-29" fill="#0B2D32"></path>
                    <path d="M24.6210278,88.7516282 C24.5535002,88.5855013 24.4879143,88.418508 24.4180136,88.2534641 C23.7505046,86.6781823 24.2055067,85.7282049 25.8921858,85.6420009 C28.218543,85.5228747 30.5571976,85.5538475 32.886791,85.6333372 C34.1158792,85.6753562 34.5027064,86.2315673 34.4839368,87.4408067 C34.1016401,89.1172374 33.0932571,90.4347733 31.942268,91.6173718 C30.6935472,92.9004694 28.8221921,93.0152637 27.3102648,92.0232673 C26.0805295,91.2164579 25.1586594,90.1393403 24.6210278,88.7516282" id="Fill-30" fill="#0B2D32"></path>
                    <path d="M24.6210278,88.7516282 C25.3006183,89.5783642 25.8952062,90.4715942 26.6856887,91.2110431 C28.5257611,92.932092 30.7043344,92.8051684 32.2781799,90.8640609 C33.1385632,89.8027546 33.8239788,88.6309859 34.4839368,87.4410233 C34.3609633,89.4741829 33.6815884,91.3089432 32.3271536,92.8175142 C30.972503,94.326735 28.7846528,94.4902628 27.1853496,93.1930867 C25.7910023,92.062254 24.8236105,90.6110801 24.6210278,88.7516282" id="Fill-31" fill="#1C6472"></path>
                    <path d="M43.3990866,87.4405901 C44.0737151,88.6643412 44.7791949,89.867516 45.6747443,90.9472327 C47.1942225,92.7791772 49.3479854,92.9013357 51.1205302,91.2872838 C51.9487678,90.5333232 52.5701077,89.6154016 53.2626429,88.752278 C52.9903752,91.5764357 50.5552834,94.0369335 48.0977544,94.0083432 C47.055284,93.9962139 46.2035305,93.5677928 45.5537124,92.8196801 C44.2234408,91.2883668 43.5227074,89.4737497 43.3990866,87.4405901" id="Fill-32" fill="#1C6472"></path>
                    <path d="M17.712504,40.931767 C17.6516644,40.1108791 17.5135889,39.0218489 18.1124916,38.6341472 C18.6028755,38.3166217 19.3860228,39.1871094 20.0036951,39.5843412 C22.3209912,41.0758014 24.5269638,42.7082637 26.3176311,44.8401898 C26.3540916,45.3383539 25.9435326,45.3944515 25.6279005,45.5096791 C23.1026282,46.4310662 19.905532,45.3697599 18.4013715,43.1516298 C17.9398971,42.4710943 17.8574833,41.6978568 17.712504,40.931767" id="Fill-33" fill="#FEFEFE"></path>
                    <path d="M17.712504,40.931767 C18.4289866,43.2584102 19.813194,44.9350575 22.2983381,45.3730088 C23.6622657,45.6132106 25.0702048,45.7104609 26.3176311,44.8401898 C27.3324863,46.0130415 27.3337808,46.0418484 25.8883024,46.5374134 C24.6842405,46.9502399 23.4644293,47.1287126 22.1848573,46.8404272 C19.0893761,46.1427808 17.588236,44.1856454 17.712504,40.931767" id="Fill-34" fill="#C8C7C8"></path>
                    <path d="M51.5660396,44.8410561 C53.7517324,42.2746443 56.4828236,40.4017636 59.3299845,38.6733506 C59.7722578,38.4049917 59.9252196,38.520869 60.020578,39.0149179 C60.1435516,39.6534344 60.2395572,40.283937 60.1722454,40.9330665 C59.8570448,44.7791105 55.6466035,46.5499758 52.2570646,45.5079463 C51.9379806,45.4098297 51.5308735,45.3387871 51.5660396,44.8410561" id="Fill-35" fill="#FEFEFE"></path>
                    <path d="M51.5660396,44.8410561 C54.1823555,46.3708533 58.8223412,45.3974838 59.9757035,41.4173688 C60.0238142,41.2510252 60.1057965,41.0942118 60.1722454,40.9330665 C60.2488342,43.0383516 59.734287,44.8663975 57.7906579,46.0156406 C55.6302071,47.2926736 53.3946776,47.3362088 51.2221452,46.1663894 C50.1630626,45.5960997 51.4527745,45.2946021 51.5660396,44.8410561" id="Fill-36" fill="#C8C8C8"></path>
                </g>
            </g>
        </g>
    </g>
</svg>