<?xml version="1.0" encoding="UTF-8" standalone="no"?>
<svg width="55px" height="124px" viewBox="0 0 55 124" version="1.1" xmlns="http://www.w3.org/2000/svg" xmlns:xlink="http://www.w3.org/1999/xlink" xmlns:sketch="http://www.bohemiancoding.com/sketch/ns">
    <!-- Generator: Sketch 3.3.3 (12072) - http://www.bohemiancoding.com/sketch -->
    <title>Gulp</title>
    <desc>Created with Sketch.</desc>
    <defs></defs>
    <g id="Page-1" stroke="none" stroke-width="1" fill="none" fill-rule="evenodd" sketch:type="MSPage">
        <g id="website" sketch:type="MSArtboardGroup" transform="translate(-1160.000000, -954.000000)">
            <g id="logos" sketch:type="MSLayerGroup" transform="translate(810.000000, 813.000000)">
                <g id="Gulp" transform="translate(350.474576, 141.363107)" sketch:type="MSShapeGroup">
                    <path d="M3.99938011,72.8576535 C7.06905908,73.5433897 8.99004345,71.6298471 11.3289063,69.7257978 C11.0015158,70.9434779 10.7419912,71.8061069 10.5421636,72.682343 C10.3671574,73.4481398 10.1453361,74.2326068 10.1663872,75.0025174 C10.1783265,75.4313003 10.5672992,76.0834933 10.9270517,76.2021602 C11.2820914,76.3192448 11.9472408,76.0075466 12.236928,75.6733807 C12.631242,75.2186493 12.8618606,74.5851265 13.0528908,73.9921086 C14.2471436,70.2817915 15.4250583,66.5660949 16.5740671,62.8412213 C16.8207097,62.0415649 17.1009711,61.1839991 17.0381322,60.3789631 C16.991003,59.7755026 16.4182267,59.2138128 16.0795252,58.6337692 C15.4992082,58.9875547 14.7401146,59.2147621 14.383504,59.7264536 C13.9200673,60.3913045 13.7510307,61.2745024 13.5003036,62.0779561 C12.5567779,65.1003219 10.4639292,67.214807 8.00095958,68.9783548 C6.48340078,70.0647103 5.54081768,69.5308677 5.42299479,67.6632095 C5.38686244,67.0875962 5.37617983,66.490781 5.4839485,65.9290912 C6.40139605,61.1555191 8.42794972,56.93889 11.8269044,53.4475528 C13.310216,51.9238704 15.306607,51.2950943 16.611142,53.9864586 C16.9730939,54.7329523 17.5596948,55.5734301 18.5732859,55.0183856 C19.6519151,54.4275829 19.5849917,53.3472398 19.2189553,52.363096 C18.250294,49.7568553 14.9679055,48.2274769 12.4565499,49.5046487 C10.7287951,50.3837328 9.00763833,51.6248299 7.80867262,53.1285763 C5.93136128,55.4835597 4.49769238,58.1977081 2.78596146,60.9017302 C1.95460316,52.1181676 1.11916034,43.2937836 0.274291683,34.3684536 C18.2770006,38.8872876 35.9761977,39.1467725 53.8224378,34.0099215 C53.5142131,36.8421039 53.219813,39.6565653 52.8993347,42.4678623 C52.0987675,49.4853456 51.3293055,56.5072591 50.4300812,63.5117682 C50.3037751,64.4949627 49.7020928,65.5734071 49.000811,66.2904713 C47.7192122,67.600237 46.1988256,68.672669 44.7780387,69.8441482 C44.6649287,69.7182031 44.5518188,69.592258 44.4383946,69.4659965 C45.0812363,68.6666565 45.76618,67.8976953 46.3556086,67.0603819 C47.0490356,66.0752888 47.7936763,65.0908285 48.2775356,63.9990934 C49.2433691,61.8210028 47.7773382,59.9615722 45.4441308,60.4900353 C44.2190869,60.7672411 43.1106092,61.5678468 42.098275,62.0596023 C41.571371,61.7159431 40.9451816,60.991917 40.4823733,61.0859012 C39.9133673,61.2014036 39.2001461,61.9219487 39.038336,62.5155995 C38.3128612,65.1825975 36.5703392,66.9781062 34.4146517,68.4726757 C33.9175962,68.8172843 33.3608438,69.0739212 32.39124,69.6182065 C32.645109,68.5584323 32.7183163,67.9157326 32.9498775,67.3375877 C34.6927137,62.9864696 36.4675977,58.6480092 38.2305423,54.3044858 C38.4284847,53.8171606 38.7772405,53.3206584 38.7643585,52.8358648 C38.7499056,52.2805039 38.5434799,51.4150269 38.1796428,51.2609182 C37.6882428,51.0530139 36.8672529,51.2356026 36.3758529,51.549516 C35.9526331,51.81976 35.7352106,52.4855602 35.5259572,53.0162384 C33.6323077,57.818607 31.7223202,62.6152796 29.9075335,67.448027 C29.4129915,68.7653873 28.5455009,69.3296087 26.9933807,69.675483 C27.0860681,68.8492452 27.0480505,68.1809135 27.2488207,67.5951739 C27.7942622,66.0025064 28.4625536,64.452559 29.0387861,62.8697014 C29.3614637,61.9827062 29.5012802,60.9922335 28.4471581,60.5469954 C27.3276835,60.0742266 26.8915817,61.0216628 26.4759026,61.8371415 C25.5000149,63.7516335 24.6428927,65.7427051 23.4938839,67.5451756 C22.9484424,68.4002098 21.8446776,68.8941804 20.9938393,69.5514366 C20.7971536,69.4020746 20.6004679,69.2527126 20.4037822,69.1033505 C20.6494822,68.1261685 20.7999813,67.1113295 21.1635042,66.1809814 C21.6605597,64.9088727 22.4146262,63.7345454 22.8617248,62.449146 C23.0376736,61.943467 22.8224505,60.8270492 22.5399898,60.7324322 C21.9728689,60.5425652 20.8593641,60.6321191 20.6303164,61.0109037 C18.8551182,63.9452978 17.3494988,67.039813 17.2187939,70.5577315 C17.1653809,72.0019863 18.2562637,72.9886617 19.727636,72.6956337 C21.2992362,72.3826696 22.7737504,71.5760514 24.0842551,71.0653093 C24.7305529,71.5611785 25.4550851,72.5399427 26.2848724,72.6408887 C27.21206,72.7535431 28.2347627,72.0697055 29.2923409,71.7064267 C31.5966424,73.2089074 31.6817891,73.2038443 35.5787418,71.087144 C35.2453816,71.8849017 35.0219894,72.4200101 34.7985972,72.9551185 C34.0486152,74.7509436 33.2078311,76.5167065 32.6089767,78.3625299 C32.4459098,78.8656774 32.8575044,79.9608934 33.281981,80.1479123 C33.7598706,80.3589811 34.6836021,80.0124739 35.1674614,79.6090066 C35.6450368,79.2109188 35.8564896,78.4558812 36.114129,77.8280544 C37.2141235,75.1493478 38.167075,72.4010234 39.4147409,69.7957321 C40.2222204,68.1097134 41.3608608,66.5575509 42.5230657,65.0832338 C43.0867304,64.3683847 44.04628,63.9699805 44.8264246,63.4285432 C44.9671837,63.5661967 45.1079428,63.7038503 45.2490161,63.8415038 C44.9395346,64.3832576 44.6765539,64.958871 44.3120885,65.4601198 C43.3849009,66.7347601 42.2921329,67.9056064 41.5091605,69.2609401 C41.1192453,69.9362337 40.8999376,71.1785966 41.2618895,71.7048445 C41.6841668,72.3187477 42.9126668,72.831705 43.6368848,72.6734825 C45.016198,72.3719105 46.3175911,71.6219359 47.5881931,70.9393642 C48.2640252,70.5757689 48.8078957,69.9631315 49.7485936,69.1837276 C49.670045,70.1428722 49.6357978,70.7776608 49.5641615,71.4080191 C48.8735623,77.4837623 48.1232661,83.5534929 47.5112155,89.6371472 C47.3088743,91.6484713 46.3552944,92.9775401 44.5395652,93.4566378 C41.2615754,94.3217983 37.9597067,95.2470834 34.6088238,95.6496013 C26.922687,96.5729877 19.2491179,96.2324929 11.6622665,94.550588 C11.5601534,94.527804 11.456155,94.5119817 11.3546703,94.4869826 C6.33290168,93.2436704 5.86946498,92.7478011 5.3331352,87.597343 C4.85304621,82.9842085 4.44019481,78.3641121 4.00252205,73.7468638 C3.97864328,73.4965558 3.99938011,73.2421341 3.99938011,72.8576535" id="Fill-1" fill="#259CB3"></path>
                    <path d="M7.60193273,94.3654677 C20.295071,97.790035 32.7220866,97.8979427 45.4708373,94.2882551 C44.7582445,95.4774553 44.0337123,96.5125467 43.4964399,97.6381414 C43.079504,98.5124788 42.7059269,99.4864964 42.639946,100.439312 C42.2673115,105.804953 41.9616004,111.175973 41.7111875,116.548892 C41.6580886,117.687777 41.2392676,118.370033 40.2907148,118.947545 C31.0222951,124.593556 21.845306,123.676815 12.7531494,118.552938 C12.2523236,118.270669 11.8620942,117.39823 11.8071101,116.766606 C11.4096543,112.196824 11.0118842,107.622613 10.8211682,103.041123 C10.712457,100.427604 10.198435,98.0571146 8.56588105,95.9812357 C8.2171253,95.5375798 7.97865178,95.0053194 7.60193273,94.3654677" id="Fill-2" fill="#259CB3"></path>
                    <path d="M48.0670254,0.0123413532 C49.2688188,0.932563282 50.3000047,1.72209344 51.4471284,2.60054464 C51.040875,3.09483166 50.7326504,3.49924831 50.3945772,3.8764507 C46.781342,7.90827586 43.1395151,11.9141525 39.5696387,15.9842676 C38.9384222,16.7041798 38.4445086,17.6370596 38.1595344,18.556965 C37.1974712,21.6654038 36.358258,24.8121325 35.4128472,28.1531583 C38.3348548,28.4085294 41.0384974,28.5544105 43.7157476,28.9043986 C46.4599212,29.2629307 49.1946689,29.7464586 51.8979973,30.3401094 C52.6618038,30.5078252 53.3002467,31.2540024 53.9961873,31.7349987 C53.3655992,32.2333995 52.8019345,33.0128035 52.093112,33.1843166 C47.9325502,34.1915609 43.7776438,35.3798117 39.5470167,35.9063761 C28.9385581,37.2265845 18.3322988,36.9402018 7.82940945,34.7706552 C5.84307266,34.3602261 3.90449341,33.6713254 1.98727938,32.9878043 C1.41450304,32.7836973 0.98908387,32.1615665 0.495798712,31.7308849 C1.04815241,31.30495 1.54646468,30.6312387 2.16197144,30.4958003 C4.96647037,29.8777833 7.78510805,29.1512257 10.63328,28.9439542 C16.5790942,28.511374 22.5453311,28.3366964 28.5062266,28.1623352 C29.8120184,28.1240453 30.501675,27.8288022 30.7863351,26.4497351 C31.2544847,24.1808248 32.0651062,21.9783679 32.4553356,19.6999642 C32.9860099,16.6032339 34.4608383,14.1982522 36.6630266,12.0052887 C40.5279315,8.1570016 44.194894,4.10682262 48.0670254,0.0123413532 L48.0670254,0.0123413532 Z M34.9305588,31.9270808 L29.1415276,31.9270808 C30.3040468,33.0590044 33.783121,33.0523591 34.9305588,31.9270808 L34.9305588,31.9270808 Z" id="Fill-3" fill="#259CB3"></path>
                    <path d="M34.9305588,31.9270808 C33.783121,33.0523591 30.3040468,33.0590044 29.1415276,31.9270808 L34.9305588,31.9270808" id="Fill-4" fill="#FFFFFF"></path>
                </g>
            </g>
        </g>
    </g>
</svg>