<?xml version="1.0" encoding="UTF-8" standalone="no"?>
<svg width="86px" height="120px" viewBox="0 0 86 120" version="1.1" xmlns="http://www.w3.org/2000/svg" xmlns:xlink="http://www.w3.org/1999/xlink" xmlns:sketch="http://www.bohemiancoding.com/sketch/ns">
    <!-- Generator: Sketch 3.3.3 (12072) - http://www.bohemiancoding.com/sketch -->
    <title>HTML5</title>
    <desc>Created with Sketch.</desc>
    <defs></defs>
    <g id="Page-1" stroke="none" stroke-width="1" fill="none" fill-rule="evenodd" sketch:type="MSPage">
        <g id="website" sketch:type="MSArtboardGroup" transform="translate(-812.000000, -955.000000)">
            <g id="logos" sketch:type="MSLayerGroup" transform="translate(810.000000, 813.000000)">
                <g id="HTML5" transform="translate(2.384181, 142.157282)" sketch:type="MSShapeGroup">
                    <path d="M7.85973581,109.827121 L0.147878159,23.4685596 L84.8879034,23.4685596 L77.1678692,109.813593 L42.4660283,119.418629 L7.85973581,109.827121 Z" id="Shape" fill="#186473"></path>
                    <path d="M42.5178908,112.076949 L70.5586734,104.315438 L77.1559549,30.5296525 L42.5178908,30.5296525 L42.5178908,112.076949 Z" id="Shape" fill="#259CB3"></path>
                    <path d="M42.5178908,62.5588018 L28.4799784,62.5588018 L27.510477,51.7129313 L42.5178908,51.7129313 L42.5178908,41.1212919 L42.4812133,41.1212919 L15.9166425,41.1212919 L16.1705818,43.9628489 L18.7779564,73.150208 L42.5178908,73.150208 L42.5178908,62.5588018 Z" id="Shape" fill="#EBEBEB"></path>
                    <path d="M42.5178908,90.0661367 L42.4714014,90.0784984 L30.6565673,86.8933797 L29.9012907,78.4461443 L24.1602074,78.4461443 L19.2519608,78.4461443 L20.738218,95.0763546 L42.4690653,101.099299 L42.5178908,101.085771 L42.5178908,90.0661367 Z" id="Shape" fill="#EBEBEB"></path>
                    <path d="M8.03214352,0 L13.4232719,0 L13.4232719,5.31786084 L18.35488,5.31786084 L18.35488,0 L23.746242,0 L23.746242,16.1037888 L18.3551136,16.1037888 L18.3551136,10.7112913 L13.4235055,10.7112913 L13.4235055,16.1037888 L8.03237713,16.1037888 L8.03237713,0 L8.03214352,0 Z" id="Shape" fill="#186473"></path>
                    <path d="M30.8357499,5.34025183 L26.0896319,5.34025183 L26.0896319,0 L40.975566,0 L40.975566,5.34025183 L36.2273455,5.34025183 L36.2273455,16.1037888 L30.8359835,16.1037888 L30.8359835,5.34025183 L30.8357499,5.34025183 Z" id="Shape" fill="#186473"></path>
                    <path d="M43.3381123,0 L48.9595848,0 L52.4175509,5.65839053 L55.8720127,0 L61.4955878,0 L61.4955878,16.1037888 L56.1266528,16.1037888 L56.1266528,8.12186624 L52.4175509,13.847663 L52.3248058,13.847663 L48.6131341,8.12186624 L48.6131341,16.1037888 L43.3381123,16.1037888 L43.3381123,0 L43.3381123,0 Z" id="Shape" fill="#186473"></path>
                    <path d="M64.1786536,0 L69.5714173,0 L69.5714173,10.7807967 L77.1529179,10.7807967 L77.1529179,16.1037888 L64.1786536,16.1037888 L64.1786536,0 L64.1786536,0 Z" id="Shape" fill="#186473"></path>
                    <path d="M42.4812133,62.5588018 L42.4812133,73.150208 L55.5444848,73.150208 L54.3131012,86.8866157 L42.4812133,90.0749998 L42.4812133,101.094167 L64.229348,95.0763546 L64.3889069,93.2869411 L66.8818103,65.4029244 L67.1406554,62.5588018 L64.2819113,62.5588018 L42.4812133,62.5588018 Z" id="Shape" fill="#FFFFFF"></path>
                    <path d="M42.4812133,41.1212919 L42.4812133,47.6995791 L42.4812133,51.6870417 L42.4812133,51.7129313 L68.071844,51.7129313 L68.1059517,51.7129313 L68.3187748,49.3322556 L68.8021238,43.9628489 L69.0558294,41.1212919 L42.4812133,41.1212919 Z" id="Shape" fill="#FFFFFF"></path>
                </g>
            </g>
        </g>
    </g>
</svg>