<?xml version="1.0" encoding="UTF-8" standalone="no"?>
<svg width="89px" height="88px" viewBox="0 0 89 88" version="1.1" xmlns="http://www.w3.org/2000/svg" xmlns:xlink="http://www.w3.org/1999/xlink" xmlns:sketch="http://www.bohemiancoding.com/sketch/ns">
    <!-- Generator: Sketch 3.3.3 (12072) - http://www.bohemiancoding.com/sketch -->
    <title>JavaScript_logo_2</title>
    <desc>Created with Sketch.</desc>
    <defs></defs>
    <g id="Page-1" stroke="none" stroke-width="1" fill="none" fill-rule="evenodd" sketch:type="MSPage">
        <g id="website" sketch:type="MSArtboardGroup" transform="translate(-810.000000, -823.000000)">
            <g id="logos" sketch:type="MSLayerGroup" transform="translate(810.000000, 813.000000)">
                <g id="JavaScript_logo_2" transform="translate(0.000000, 9.530097)" sketch:type="MSShapeGroup">
                    <rect id="Rectangle-path" fill="#259CB3" x="0.695525236" y="0.695041988" width="87.6183657" height="87.5574888"></rect>
                    <path d="M59.5528147,69.0996776 C61.3176989,71.9793461 63.6138564,74.0960137 67.6748981,74.0960137 C71.0864513,74.0960137 73.2657843,72.3921171 73.2657843,70.0377935 C73.2657843,67.2164967 71.0266483,66.2172295 67.2715755,64.575874 L65.2132393,63.6933501 C59.2718796,61.1639115 55.3248809,57.9951643 55.3248809,51.2963215 C55.3248809,45.1256033 60.029848,40.4280745 67.3828369,40.4280745 C72.6176866,40.4280745 76.381104,42.2487144 79.093101,47.0157332 L72.6816619,51.1295454 C71.2700327,48.6001068 69.747142,47.6036192 67.3828369,47.6036192 C64.9712457,47.6036192 63.442792,49.1324007 63.442792,51.1295454 C63.442792,53.5978327 64.9726365,54.5970999 68.5051865,56.1258814 L70.5635227,57.0070155 C77.5590843,60.0048172 81.5088646,63.0609905 81.5088646,69.9321686 C81.5088646,77.3398102 75.6857202,81.3980303 67.8654333,81.3980303 C60.2189925,81.3980303 55.2789855,77.7567506 52.8618313,72.9841725 L59.5528147,69.0996776 Z M30.4676896,69.8126457 C31.7611036,72.105818 32.9376931,74.044591 35.7665146,74.044591 C38.4715578,74.044591 40.1780298,72.9869521 40.1780298,68.8745298 L40.1780298,40.8978274 L48.4113746,40.8978274 L48.4113746,68.9857139 C48.4113746,77.5051965 43.4129554,81.3827425 36.116988,81.3827425 C29.5247491,81.3827425 25.7070917,77.9735596 23.76558,73.8673913 L30.4676896,69.8126457 Z" id="Shape" fill="#FFFFFF"></path>
                </g>
            </g>
        </g>
    </g>
</svg>