<?xml version="1.0" encoding="UTF-8" standalone="no"?>
<svg width="87px" height="34px" viewBox="0 0 87 34" version="1.1" xmlns="http://www.w3.org/2000/svg" xmlns:xlink="http://www.w3.org/1999/xlink" xmlns:sketch="http://www.bohemiancoding.com/sketch/ns">
    <!-- Generator: Sketch 3.3.3 (12072) - http://www.bohemiancoding.com/sketch -->
    <title>npm</title>
    <desc>Created with Sketch.</desc>
    <defs></defs>
    <g id="Page-1" stroke="none" stroke-width="1" fill="none" fill-rule="evenodd" sketch:type="MSPage">
        <g id="website" sketch:type="MSArtboardGroup" transform="translate(-1034.000000, -1148.000000)" fill="#259CB3">
            <g id="logos" sketch:type="MSLayerGroup" transform="translate(810.000000, 813.000000)">
                <g id="npm" transform="translate(224.907721, 335.141748)" sketch:type="MSShapeGroup">
                    <g id="Page-1">
                        <path d="M0,0 L85.8305085,0 L85.8305085,28.7369081 L42.9152542,28.7369081 L42.9152542,33.3553398 L23.8608814,33.3553398 L23.8608814,28.7369081 L0,28.7369081 L0,0 Z M4.85873651,23.8607278 L14.3399156,23.8607834 L14.3399157,9.50358498 L19.1066009,9.50358498 L19.1066009,23.8607836 L23.8304076,23.8607836 L23.8304076,4.8738043 L4.85873651,4.8738043 L4.85873651,23.8607278 Z M28.5529491,4.78948469 L28.6101695,28.7369081 L38.0515255,28.7369081 L38.0515255,23.9589367 L47.6094698,23.9589367 L47.6094698,4.78948469 L28.5529491,4.78948469 Z M37.9370847,9.40791636 L42.9152542,9.40791636 L42.9152542,19.1579388 L37.9370847,19.1579388 L37.9370847,9.40791636 Z M52.4138305,4.78948469 L52.4138305,23.7763704 L61.9120608,23.7763704 L61.9120608,9.52183904 L66.661351,9.52183904 L66.661351,23.776464 L71.4054707,23.776464 L71.4054707,9.57896938 L76.1599265,9.57896938 L76.1599265,23.7763704 L80.9104804,23.7763704 L80.9104804,4.78948469 L52.4138305,4.78948469 Z" id="Rectangle-1"></path>
                    </g>
                </g>
            </g>
        </g>
    </g>
</svg>