<?xml version="1.0" encoding="UTF-8" standalone="no"?>
<svg width="87px" height="65px" viewBox="0 0 87 65" version="1.1" xmlns="http://www.w3.org/2000/svg" xmlns:xlink="http://www.w3.org/1999/xlink" xmlns:sketch="http://www.bohemiancoding.com/sketch/ns">
    <!-- Generator: Sketch 3.3.3 (12072) - http://www.bohemiancoding.com/sketch -->
    <title>Sass</title>
    <desc>Created with Sketch.</desc>
    <defs></defs>
    <g id="Page-1" stroke="none" stroke-width="1" fill="none" fill-rule="evenodd" sketch:type="MSPage">
        <g id="website" sketch:type="MSArtboardGroup" transform="translate(-1035.000000, -834.000000)" fill="#259CB3">
            <g id="logos" sketch:type="MSLayerGroup" transform="translate(810.000000, 813.000000)">
                <path d="M291.84788,60.1921663 C291.042693,58.5996732 290.237505,57.208337 290.103307,56.1690257 C289.952335,54.9620835 289.767813,54.2245077 289.952335,52.7828823 C290.136857,51.3412568 290.975594,49.2961603 290.975594,49.1285295 C290.958819,48.9776617 290.791072,48.2400859 289.063273,48.2233228 C287.335475,48.2065597 285.842523,48.5585845 285.674776,49.0111879 C285.507028,49.4637912 285.171533,50.5031025 284.953462,51.5759401 C284.651516,53.1516702 281.497865,58.7337778 279.702968,61.6673179 C279.115852,60.5274281 278.61261,59.5216429 278.511961,58.7170148 C278.360989,57.5100726 278.176466,56.7724968 278.360989,55.3308714 C278.545511,53.8892459 279.384248,51.8441494 279.384248,51.6765186 C279.367473,51.5256508 279.199726,50.788075 277.471927,50.7713119 C275.744129,50.7545488 274.251177,51.1065736 274.08343,51.559177 C273.915682,52.0117803 273.73116,53.0846178 273.362116,54.1239291 C273.009846,55.1632405 268.816161,64.4835164 267.725803,66.9141639 C267.172236,68.1546323 266.685769,69.1436544 266.333499,69.8141778 C265.98123,70.5014643 265.813482,70.819963 265.813482,70.819963 C265.578636,71.2558032 265.327015,71.6581173 265.209591,71.6581173 C265.125718,71.6581173 264.95797,70.5349905 265.243141,68.9927866 C265.863806,65.7575109 267.373533,60.711822 267.356758,60.5274281 C267.356758,60.4436126 267.641929,59.5551691 266.383823,59.1025657 C265.159267,58.6499624 264.723124,59.4043013 264.622475,59.4043013 C264.521827,59.4043013 264.437953,59.6725107 264.437953,59.6725107 C264.437953,59.6725107 265.796707,53.9898245 261.837868,53.9898245 C259.355207,53.9898245 255.93316,56.6886813 254.238911,59.152855 C253.165327,59.739563 250.883962,60.9800314 248.4684,62.3043152 C247.545789,62.8072078 246.589629,63.3436265 245.683793,63.829756 L245.499271,63.628599 C240.701695,58.5158577 231.827856,54.8950311 232.196901,48.0221658 C232.331099,45.5244659 233.203385,38.9365731 249.240038,30.9573441 C262.37466,24.4197405 272.892423,26.2133907 274.72087,30.2030052 C277.320955,35.9024545 269.101331,46.4967249 255.446692,48.0221658 C250.246522,48.6088738 247.512239,46.5973035 246.824475,45.8429646 C246.103161,45.0550995 246.002513,45.0215734 245.734117,45.1724411 C245.297974,45.4071243 245.566369,46.111174 245.734117,46.5302511 C246.136711,47.5863255 247.814185,49.4637912 250.665891,50.402524 C253.165327,51.2239152 259.271333,51.6765186 266.652219,48.8267939 C274.922167,45.6250445 281.380442,36.7406088 279.484896,29.3145616 C277.555801,21.7544098 265.008295,19.273473 253.148553,23.4810076 C246.086386,25.9954706 238.437104,29.9180327 232.934989,35.0643002 C226.39284,41.1660635 225.352806,46.4967249 225.78895,48.7094523 C227.315451,56.6048659 238.202258,61.7511334 242.563691,65.5563539 C242.345619,65.6736955 242.144322,65.7910371 241.9598,65.8916156 C239.779084,66.9644532 231.475587,71.3060925 229.395519,75.8991781 C227.047055,81.0957348 229.764563,84.833903 231.576235,85.3367956 C237.178999,86.8957626 242.91596,84.0963272 246.019288,79.4864785 C249.10584,74.8766298 248.736796,68.8922081 247.310943,66.159825 L248.971642,65.0534613 C250.078775,64.399701 251.169133,63.7962299 252.125293,63.2765742 C251.588502,64.7349627 251.202683,66.4615606 251.001386,68.9760235 C250.766539,71.9263267 251.974321,75.7483103 253.567921,77.2569881 C254.27246,77.9107484 255.111197,77.9275115 255.631214,77.9275115 C257.476436,77.9275115 258.315173,76.4020707 259.237784,74.5748943 C260.378466,72.3454038 261.38495,69.7638885 261.38495,69.7638885 C261.38495,69.7638885 260.126845,76.7540955 263.565667,76.7540955 C264.823772,76.7540955 266.081878,75.1280761 266.652219,74.2899218 C266.887066,73.937897 266.954165,73.8205554 266.954165,73.8205554 C267.457407,72.9153487 268.581314,70.9205415 270.258789,67.6182135 C272.42273,63.3603896 274.502798,58.0297282 274.502798,58.0297282 C274.502798,58.0297282 274.704095,59.3372489 275.32476,61.482924 C275.693805,62.7569185 276.498992,64.1482547 277.119658,65.5060647 C276.616415,66.2101143 276.31447,66.6124283 276.31447,66.6124283 C275.928651,67.1656102 275.475733,67.7355551 275.00604,68.3055 C273.295017,70.3505966 271.248498,72.6806655 270.980102,73.351189 C270.661382,74.139054 270.728481,74.725762 271.349147,75.1951285 C271.802065,75.5303902 272.607252,75.5974425 273.462764,75.5303902 C275.00604,75.4298117 276.079624,75.0442607 276.616415,74.8095775 C277.455152,74.5078419 278.411313,74.0552386 279.333924,73.3847152 C281.011398,72.1442468 282.034657,70.3841227 281.934008,68.0372907 C281.883684,66.746533 281.464316,65.4725385 280.944299,64.2655963 C281.095271,64.0476762 281.246244,63.829756 281.397217,63.5950728 C284.047626,59.7227999 286.094144,55.464976 286.094144,55.464976 C286.094144,55.464976 286.295441,56.7724968 286.916107,58.9181718 C287.234827,60.0077724 287.872267,61.1979515 288.442608,62.3713675 C285.959946,64.399701 284.399895,66.746533 283.863104,68.288737 C282.873394,71.1384616 283.645032,72.4292192 285.104434,72.7309548 C285.758649,72.8650595 286.698035,72.5633239 287.402574,72.2615884 C288.274861,71.9766159 289.331669,71.4904864 290.304604,70.7696737 C291.982078,69.5292053 293.592454,67.8026075 293.50858,65.4725385 C293.458256,64.399701 293.173085,63.3436265 292.787266,62.3378414 C294.900883,61.4661609 297.635166,60.9632683 301.107538,61.3823455 C308.572297,62.2540259 310.048475,66.9141639 309.763304,68.8586819 C309.478133,70.8031999 307.918082,71.8760374 307.398066,72.2112991 C306.878049,72.5297978 306.710301,72.6471394 306.760625,72.8818226 C306.827724,73.2338474 307.062571,73.2170843 307.515489,73.1500319 C308.136154,73.0494534 311.440778,71.5575388 311.574976,67.9702383 C311.776273,63.3603896 307.398066,58.3314638 299.63136,58.381753 C296.628682,58.3985161 294.028597,59.1193288 291.84788,60.1921663 Z M242.060449,77.7766437 C239.594562,80.4755006 236.12219,81.4980489 234.646013,80.6263684 C233.052413,79.7043986 233.673078,75.7315472 236.709306,72.8650595 C238.554528,71.1216985 240.953316,69.5124422 242.530141,68.5234202 C242.882411,68.3055 243.419203,67.9870014 244.056643,67.6014504 C244.157291,67.5343981 244.22439,67.5008719 244.22439,67.5008719 C244.341813,67.4338196 244.476011,67.3500041 244.610209,67.2661887 C245.734117,71.3563817 244.660533,74.9436822 242.060449,77.7766437 L242.060449,77.7766437 Z M260.093295,65.5228277 C259.237784,67.6182135 257.426112,72.9991642 256.335753,72.6974286 C255.396368,72.4459823 254.826027,68.3725524 256.151231,64.3494117 C256.822221,62.3210783 258.248074,59.9071939 259.086811,58.9684611 C260.445565,57.4597833 261.921742,56.9568907 262.290786,57.5771249 C262.72693,58.381753 260.630087,64.215307 260.093295,65.5228277 L260.093295,65.5228277 Z M274.972491,72.6303763 C274.603446,72.8147702 274.267952,72.9488749 274.116979,72.8482964 C273.999556,72.7812441 274.267952,72.5297978 274.267952,72.5297978 C274.267952,72.5297978 276.129948,70.5349905 276.868037,69.6130208 C277.287405,69.076602 277.790647,68.4563678 278.327439,67.7523182 L278.327439,67.9534752 C278.327439,70.3673596 276.012525,71.9766159 274.972491,72.6303763 L274.972491,72.6303763 Z M286.446414,70.0153348 C286.178018,69.8141778 286.211567,69.1939436 287.117403,67.2494256 C287.469673,66.4783237 288.274861,65.187566 289.667164,63.9638607 C289.834911,64.4667533 289.93556,64.9528828 289.918785,65.4054861 C289.90201,68.4228416 287.754844,69.5459684 286.446414,70.0153348 L286.446414,70.0153348 Z" id="Sass" sketch:type="MSShapeGroup"></path>
            </g>
        </g>
    </g>
</svg>