<?xml version="1.0" encoding="UTF-8" standalone="no"?>
<svg width="115px" height="155px" viewBox="0 0 115 155" version="1.1" xmlns="http://www.w3.org/2000/svg" xmlns:xlink="http://www.w3.org/1999/xlink" xmlns:sketch="http://www.bohemiancoding.com/sketch/ns">
    <!-- Generator: Sketch 3.3.3 (12072) - http://www.bohemiancoding.com/sketch -->
    <title>Triangle 1 + Triangle 2</title>
    <desc>Created with Sketch.</desc>
    <defs></defs>
    <g id="Page-1" stroke="none" stroke-width="1" fill="none" fill-rule="evenodd" sketch:type="MSPage">
        <g id="Triangle-1-+-Triangle-2" sketch:type="MSLayerGroup" fill="#c5c5c5">
            <path d="M43.8067175,47.1157175 C44.7252663,46.5025904 46.1644509,46.5770924 47.0218719,47.2826539 L64.7930743,61.9063621 C65.6502063,62.6116857 65.5998079,63.6940458 64.7000125,64.3105171 L44.6950754,78.0163754 L85.4038244,104.582512 L85.4645246,28.632333 C85.4662865,26.427789 86.9582411,25.6460256 88.7799405,26.8747773 L113.057626,43.2502831 C113.972316,43.8672495 114.712719,45.2648043 114.711359,46.3736335 L114.581989,151.853216 C114.579279,154.062762 113.086361,154.848448 111.254983,153.613168 L1.67215326,79.698619 C-0.162591441,78.4610681 -0.161918484,76.4645834 1.68220357,75.2336402 L43.8067175,47.1157175 Z M111.288688,0.860091648 C113.130086,-0.363513279 114.621599,0.436433074 114.620073,2.65124726 L114.602316,28.4096686 C114.600791,30.6225015 113.106645,31.422804 111.268463,30.1994661 L92.5501902,17.7421746 C90.7104795,16.5178196 90.7133773,14.5323395 92.5532457,13.309751 L111.288688,0.860091648 Z" id="Triangle-1" sketch:type="MSShapeGroup"></path>
        </g>
    </g>
</svg>
