<?xml version="1.0" encoding="utf-8"?>
<!-- Generator: Adobe Illustrator 18.1.1, SVG Export Plug-In . SVG Version: 6.00 Build 0)  -->
<svg version="1.1" id="Layer_1" xmlns="http://www.w3.org/2000/svg" xmlns:xlink="http://www.w3.org/1999/xlink" x="0px" y="0px"
	 viewBox="0 0 84.889 108.308" enable-background="new 0 0 84.889 108.308" xml:space="preserve">
<g>
	<path fill="#FFFFFF" d="M33.285,48.37c0.051,0.126,0.102,0.253,0.152,0.379c-0.165-0.411,2.441-2.172,2.57-2.731
		c1.668-7.258-5.282-11.393-10.598-14.046c-0.857,0.91-1.713,1.821-2.57,2.731c9.43-4.107,19.574-7.553,27.392-14.487
		c3.105-2.753,7.088-6.406,8.307-10.444c0.864-2.861-0.123-8.713-4.282-6.871c-1.3,0.576-2.545,2.289-3.413,3.393
		c-5.443,6.921-4.143,19.221-3.894,27.442c0.34,11.214,1.356,22.396,1.509,33.619c0.114,8.404-0.129,17.311-3.51,25.15
		c-3.74,8.67-13.022,13.163-21.667,8.063c-7.949-4.689-11.688-14.583-11.777-23.452c-0.099-9.941,4.161-19.834,13.012-24.845
		c6.099-3.453,16.681-6.563,18.857,2.774c-0.152-0.651,2.732-2.034,2.57-2.731c-3.147-13.505-21.078-2.293-26.564,3.353
		c-8.388,8.634-12.534,20.125-9.394,32.094c1.923,7.331,6.694,14.838,14.32,17.141c6.366,1.923,12.076-1.069,16.441-5.579
		c8.736-9.027,10.337-20.608,10.302-32.781c-0.031-10.613-0.884-21.203-1.372-31.799c-0.433-9.392-1.998-22.447,3.371-30.771
		c-0.641,0.689-1.281,1.377-1.922,2.066c3.093-3.252,5.404,2.399,5.166,4.864c-0.377,3.891-3.395,6.687-6.349,8.888
		c-7.355,5.478-16.198,8.551-24.534,12.182c-0.43,0.187-2.329,2.851-2.57,2.731c5.332,2.661,12.274,6.752,10.598,14.046
		c0.857-0.91,1.713-1.821,2.57-2.731c-0.051-0.126-0.102-0.253-0.152-0.379C36.042,46.103,33.08,47.859,33.285,48.37L33.285,48.37z"
		/>
	<g>
		<path fill="#FFFFFF" d="M65.636,52.301c0.105-0.03,0.211-0.061,0.316-0.091c0.789-0.228-0.166-0.532-0.496-0.546
			c-2.032-0.084-3.699,0.458-5.641,1.116c-0.901,0.305-3.969,0.881-3.991,2.271c-0.02,1.223,2.248,1.573,3.083,1.665
			c2.489,0.271,5.086,0.307,7.591,0.411c0.917,0.038,7.77,0.674,6.977-1.665c-0.385-1.136-3.167-1.98-4.113-2.329
			c-1.966-0.725-4.162-1.365-6.249-1.566c-0.86-0.083-2.146,0.481-0.598,0.63c2.172,0.209,4.825,1.079,6.748,2.073
			c0.81,0.418,2.163,0.855,1,2.184c-0.421,0.48-2.686,0.035-3.456,0.013c-1.911-0.055-3.956-0.076-5.852-0.347
			c-5.338-0.764-2.029-2.017-0.054-2.706c1.163-0.406,2.701-1.171,3.956-1.119c-0.165-0.182-0.331-0.364-0.496-0.546
			c-0.105,0.03-0.211,0.061-0.316,0.091C63.045,52.128,65.2,52.427,65.636,52.301L65.636,52.301z"/>
		<path fill="#FFFFFF" d="M56.253,35.925c0.333,0.077,0.013,5.893-0.029,6.576c-0.248,4.038-0.889,8.027-0.278,12.062
			c0.107,0.708,2.34,0.594,2.25,0c-0.698-4.61,0.221-9.195,0.366-13.812c0.044-1.392,0.699-5.207-1.174-5.639
			C56.697,34.952,54.842,35.599,56.253,35.925L56.253,35.925z"/>
		<path fill="#FFFFFF" d="M67.119,35.691c-1.71,6.083-3.719,13.61-3.438,19.934c0.009,0.205,2.257,0.148,2.25,0
			c-0.282-6.324,1.728-13.851,3.438-19.934C69.362,35.715,67.218,35.34,67.119,35.691L67.119,35.691z"/>
		<path fill="#FFFFFF" d="M77.046,38.886c-3.762,4.872-4.642,11.899-6.662,17.583c-0.067,0.187,2.052,0.557,2.25,0
			c1.987-5.591,2.87-12.624,6.582-17.43C79.382,38.824,77.394,38.435,77.046,38.886L77.046,38.886z"/>
		<path fill="#FFFFFF" d="M56.053,29.016c-0.142,0.317-0.154,0.598-0.072,0.934c0.2,0.823,2.416,0.683,2.25,0
			c-0.052-0.214-0.1-0.424-0.008-0.629C58.576,28.531,56.365,28.319,56.053,29.016L56.053,29.016z"/>
		<path fill="#FFFFFF" d="M67.702,28.978c-0.045,0.448-0.316,0.84-0.314,1.291c0.002,0.57,2.252,0.575,2.25,0
			c-0.001-0.45,0.269-0.843,0.314-1.291C70.004,28.462,67.764,28.361,67.702,28.978L67.702,28.978z"/>
		<path fill="#FFFFFF" d="M78.838,34.501c-0.044,0.448-0.316,0.839-0.314,1.29c0.001,0.57,2.251,0.575,2.25,0
			c-0.001-0.45,0.27-0.842,0.314-1.29C81.139,33.984,78.899,33.884,78.838,34.501L78.838,34.501z"/>
	</g>
</g>
</svg>
