<?xml version="1.0" encoding="UTF-8" standalone="no"?>
<svg width="82px" height="74px" viewBox="0 0 82 74" version="1.1" xmlns="http://www.w3.org/2000/svg" xmlns:xlink="http://www.w3.org/1999/xlink" xmlns:sketch="http://www.bohemiancoding.com/sketch/ns">
    <!-- Generator: Sketch 3.3.3 (12072) - http://www.bohemiancoding.com/sketch -->
    <title>react</title>
    <desc>Created with Sketch.</desc>
    <defs></defs>
    <g id="Page-1" stroke="none" stroke-width="1" fill="none" fill-rule="evenodd" sketch:type="MSPage">
        <g id="website" sketch:type="MSArtboardGroup" transform="translate(-926.000000, -830.000000)">
            <g id="logos" sketch:type="MSLayerGroup" transform="translate(810.000000, 813.000000)">
                <g id="react" transform="translate(118.414313, 19.854369)" sketch:type="MSShapeGroup">
                    <ellipse id="Oval" fill="#259CB3" cx="38.5486675" cy="34.0060442" rx="7.15850004" ry="7.16615015"></ellipse>
                    <path d="M38.5486675,19.4357626 C48.1599245,19.4357626 57.0885363,20.8163682 63.8206684,23.1364713 C71.9319323,25.9318227 76.9190668,30.1692034 76.9190668,34.0060442 C76.9190668,38.0044437 71.6335604,42.5058036 62.9232696,45.3948619 C56.3378263,47.5791185 47.6723412,48.7191717 38.5486675,48.7191717 C29.1945441,48.7191717 20.3367083,47.6489702 13.678634,45.370721 C5.25315922,42.4878051 0.17826827,37.9280212 0.17826827,34.0060442 C0.17826827,30.2003438 4.93994719,25.9958176 12.9371991,23.2046088 C19.6944453,20.8463659 28.8435183,19.4357626 38.5486675,19.4357626 L38.5486675,19.4357626 Z" id="Shape" stroke="#259CB3" stroke-width="5"></path>
                    <path d="M25.878492,26.7629001 C30.6799824,18.4281277 36.3352074,11.3749686 41.7060445,6.69590841 C48.1771904,1.05835221 54.3354097,-1.14961683 57.6555999,0.767089429 C61.1156295,2.76450362 62.3704753,9.59696575 60.5190284,18.5936861 C59.1192061,25.395722 55.7767558,33.4799428 51.218843,41.3920342 C46.5457767,49.503967 41.1946314,56.6506901 35.8968533,61.286468 C29.1929745,67.1528634 22.7119827,69.2756962 19.3180201,67.3164219 C16.024799,65.415143 14.7652443,59.1854906 16.3451457,50.8558606 C17.6800425,43.8178432 21.0300555,35.1792376 25.878492,26.7629001 L25.878492,26.7629001 Z" id="Shape" stroke="#259CB3" stroke-width="5"></path>
                    <path d="M25.890621,41.4131754 C21.0752893,33.0864023 17.7954814,24.6592086 16.4283359,17.6643307 C14.7810832,9.23656555 15.9457468,2.7927871 19.2627977,0.870509859 C22.7194028,-1.13276101 29.2591842,1.19105605 36.1205966,7.2900045 C41.308358,11.9010701 46.6353882,18.8372383 51.2065714,26.7417589 C55.8931936,34.8458352 59.4058772,43.056046 60.7721665,49.9659307 C62.5011825,58.7099566 61.1016456,65.3910021 57.7109649,67.3559902 C54.4208831,69.2626973 48.4003629,67.243999 41.9805866,61.7137201 C36.5563822,57.041088 30.7531841,49.8213706 25.890621,41.4131754 L25.890621,41.4131754 Z" id="Shape" stroke="#259CB3" stroke-width="5"></path>
                </g>
            </g>
        </g>
    </g>
</svg>
